<?xml version="1.0" encoding="UTF-8"?>
<svg width="30px" height="24px" viewBox="0 0 30 24" version="1.1" xmlns="http://www.w3.org/2000/svg" xmlns:xlink="http://www.w3.org/1999/xlink">
    <!-- Generator: Sketch 55.2 (78181) - https://sketchapp.com -->
    <title>noun_Arrow_3121602</title>
    <desc>Created with Sketch.</desc>
    <g id="Formulaire" stroke="none" stroke-width="1" fill="none" fill-rule="evenodd">
        <g id="Desktop-HD" transform="translate(-705.000000, -765.000000)" fill="#FEA49F">
            <g id="planChoisi" transform="translate(140.000000, 632.000000)">
                <g id="noun_Arrow_3121602" transform="translate(565.000000, 133.000000)">
                    <g id="Group">
                        <g id="a-link">
                            <g id="a">
                                <path d="M29.7352941,12.6646154 C29.9117647,12.48 30,12.2584615 30,12 C30,11.7415385 29.9117647,11.5261538 29.7352941,11.3538462 L19.1470588,0.276923077 C18.9823529,0.0923076923 18.7764706,0 18.5294118,0 C18.2823529,0 18.0705882,0.0923076923 17.8941176,0.276923077 C17.7294118,0.449230769 17.6470588,0.664615385 17.6470588,0.923076923 C17.6470588,1.18153846 17.7294118,1.40307692 17.8941176,1.58769231 L26.9823529,11.0769231 L0.882352941,11.0769231 C0.635294118,11.0769231 0.423529412,11.1692308 0.247058824,11.3538462 C0.0823529412,11.5261538 -2.27373675e-13,11.7415385 -2.27373675e-13,12 C-2.27373675e-13,12.2584615 0.0823529412,12.48 0.247058824,12.6646154 C0.423529412,12.8369231 0.635294118,12.9230769 0.882352941,12.9230769 L26.9823529,12.9230769 L17.8941176,22.4307692 C17.7294118,22.6030769 17.6470588,22.8184615 17.6470588,23.0769231 C17.6470588,23.3353846 17.7294118,23.5569231 17.8941176,23.7415385 C18.0705882,23.9138462 18.2823529,24 18.5294118,24 C18.7764706,24 18.9823529,23.9138462 19.1470588,23.7415385 L29.7352941,12.6646154 Z" id="Path"></path>
                            </g>
                        </g>
                    </g>
                </g>
            </g>
        </g>
    </g>
</svg>