<?xml version="1.0" encoding="UTF-8"?>
<svg width="126px" height="112px" viewBox="0 0 126 112" version="1.1" xmlns="http://www.w3.org/2000/svg" xmlns:xlink="http://www.w3.org/1999/xlink">
    <!-- Generator: Sketch 55.2 (78181) - https://sketchapp.com -->
    <title>noun_form_2355546</title>
    <desc>Created with Sketch.</desc>
    <g id="Formulaire" stroke="none" stroke-width="1" fill="none" fill-rule="evenodd">
        <g id="Desktop-HD" transform="translate(-673.000000, -226.000000)" fill="#101357">
            <g id="hero" transform="translate(140.000000, 226.000000)">
                <g id="noun_form_2355546" transform="translate(533.000000, 0.000000)">
                    <g id="Group">
                        <path d="M87.54375,103.234783 L9.84375,103.234783 L9.84375,16.5565217 L21.7875,16.5565217 L21.7875,20.2086957 C21.7875,22.5217391 23.8875,24.4695652 26.38125,24.4695652 C28.875,24.4695652 30.975,22.5217391 30.975,20.2086957 L30.975,16.5565217 L44.23125,16.5565217 L44.23125,20.2086957 C44.23125,22.5217391 46.33125,24.4695652 48.825,24.4695652 C51.31875,24.4695652 53.41875,22.5217391 53.41875,20.2086957 L53.41875,16.5565217 L66.675,16.5565217 L66.675,20.2086957 C66.675,22.5217391 68.775,24.4695652 71.26875,24.4695652 C73.7625,24.4695652 75.8625,22.5217391 75.8625,20.2086957 L75.8625,16.5565217 L87.80625,16.5565217 L87.80625,57.3391304 L96.99375,48.8173913 L96.99375,14.4869565 C96.99375,10.9565217 93.975,8.03478261 90.0375,8.03478261 L75.73125,8.03478261 L75.73125,4.3826087 C75.73125,2.06956522 73.63125,0.12173913 71.1375,0.12173913 C68.64375,0.12173913 66.54375,2.06956522 66.54375,4.3826087 L66.54375,8.03478261 L53.2875,8.03478261 L53.2875,4.3826087 C53.2875,2.06956522 51.1875,0.12173913 48.69375,0.12173913 C46.2,0.12173913 44.1,2.06956522 44.1,4.3826087 L44.1,8.03478261 L30.84375,8.03478261 L30.84375,4.3826087 C30.84375,2.06956522 28.74375,0.12173913 26.25,0.12173913 C23.75625,0.12173913 21.65625,2.06956522 21.65625,4.3826087 L21.65625,8.03478261 L7.6125,8.03478261 C3.80625,8.03478261 0.65625,10.8347826 0.65625,14.4869565 L0.65625,105.304348 C0.65625,108.834783 3.675,111.756522 7.6125,111.756522 L89.90625,111.756522 C93.7125,111.756522 96.8625,108.834783 96.8625,105.304348 L96.8625,87.1652174 L87.675,95.6869565 L87.675,103.234783 L87.54375,103.234783 Z" id="Path"></path>
                        <path d="M74.2875,62.9391304 C74.2875,60.626087 72.1875,58.6782609 69.69375,58.6782609 L27.825,58.6782609 C25.33125,58.6782609 23.23125,60.626087 23.23125,62.9391304 C23.23125,65.2521739 25.33125,67.2 27.825,67.2 L69.69375,67.2 C72.1875,67.2 74.2875,65.2521739 74.2875,62.9391304 Z" id="Path"></path>
                        <path d="M27.825,45.8956522 L69.69375,45.8956522 C72.1875,45.8956522 74.2875,43.9478261 74.2875,41.6347826 C74.2875,39.3217391 72.1875,37.373913 69.69375,37.373913 L27.825,37.373913 C25.33125,37.373913 23.23125,39.3217391 23.23125,41.6347826 C23.23125,43.9478261 25.2,45.8956522 27.825,45.8956522 Z" id="Path"></path>
                        <path d="M23.23125,84.2434783 C23.23125,86.6782609 25.2,88.5043478 27.825,88.5043478 L62.2125,88.5043478 L64.05,80.9565217 C64.18125,80.5913043 64.18125,80.226087 64.3125,79.9826087 L27.825,79.9826087 C25.2,79.9826087 23.23125,81.9304348 23.23125,84.2434783 Z" id="Path"></path>
                        <path d="M71.1375,94.3478261 L81.24375,92.2782609 C81.6375,92.1565217 82.03125,91.9130435 82.425,91.6695652 L85.44375,88.7478261 L74.2875,78.4 L71.26875,81.2 C70.875,81.5652174 70.74375,81.8086957 70.6125,82.2956522 L68.25,91.7913043 C67.85625,93.373913 69.43125,94.7130435 71.1375,94.3478261 Z" id="Path"></path>
                        <polygon id="Path" points="78.225 74.8695652 89.25 85.2173913 115.5 60.8695652 104.475 50.5217391"></polygon>
                        <path d="M124.55625,49.426087 L116.8125,42.1217391 C115.7625,41.2695652 114.31875,41.2695652 113.4,42.1217391 L108.15,46.9913043 L119.30625,57.3391304 L124.55625,52.4695652 C125.60625,51.6173913 125.60625,50.2782609 124.55625,49.426087 Z" id="Path"></path>
                    </g>
                </g>
            </g>
        </g>
    </g>
</svg>