<?xml version="1.0" encoding="UTF-8"?>
<svg width="47px" height="47px" viewBox="0 0 47 47" version="1.1" xmlns="http://www.w3.org/2000/svg" xmlns:xlink="http://www.w3.org/1999/xlink">
    <!-- Generator: Sketch 55.2 (78181) - https://sketchapp.com -->
    <title>iconmonstr-instagram-14</title>
    <desc>Created with Sketch.</desc>
    <g id="Fiche-Entreprise" stroke="none" stroke-width="1" fill="none" fill-rule="evenodd">
        <g id="Desktop-HD" transform="translate(-1103.000000, -1096.000000)" fill="#101357">
            <g id="sidebar" transform="translate(971.000000, 336.000000)">
                <g id="mediasSociaux" transform="translate(71.000000, 726.000000)">
                    <g id="iconmonstr-instagram-14" transform="translate(61.000000, 34.000000)">
                        <path d="M29.040125,12.3414167 C27.594875,12.2748333 27.160125,12.2630833 23.5,12.2630833 C19.839875,12.2630833 19.4070833,12.2767917 17.9618333,12.3414167 C14.2429583,12.5117917 12.5117917,14.2723333 12.3414167,17.9618333 C12.2767917,19.4070833 12.261125,19.839875 12.261125,23.5 C12.261125,27.160125 12.2767917,27.5929167 12.3414167,29.040125 C12.5117917,32.7198333 14.235125,34.4901667 17.9618333,34.6605417 C19.405125,34.7251667 19.839875,34.7408333 23.5,34.7408333 C27.1620833,34.7408333 27.594875,34.727125 29.040125,34.6605417 C32.759,34.492125 34.4882083,32.7257083 34.6605417,29.040125 C34.7251667,27.594875 34.738875,27.160125 34.738875,23.5 C34.738875,19.839875 34.7251667,19.4070833 34.6605417,17.9618333 C34.4882083,14.2742917 32.7550833,12.5117917 29.040125,12.3414167 Z M23.5,30.5402083 C19.6127083,30.5402083 16.4597917,27.38925 16.4597917,23.5 C16.4597917,19.6127083 19.6127083,16.46175 23.5,16.46175 C27.3872917,16.46175 30.5402083,19.6127083 30.5402083,23.5 C30.5402083,27.3872917 27.3872917,30.5402083 23.5,30.5402083 Z M30.8182917,17.8286667 C29.909625,17.8286667 29.1732917,17.0923333 29.1732917,16.1836667 C29.1732917,15.275 29.909625,14.5386667 30.8182917,14.5386667 C31.7269583,14.5386667 32.4632917,15.275 32.4632917,16.1836667 C32.4632917,17.090375 31.7269583,17.8286667 30.8182917,17.8286667 L30.8182917,17.8286667 Z M28.0687917,23.5 C28.0687917,26.0242917 26.0223333,28.0687917 23.5,28.0687917 C20.9776667,28.0687917 18.9312083,26.0242917 18.9312083,23.5 C18.9312083,20.9757083 20.9776667,18.9312083 23.5,18.9312083 C26.0223333,18.9312083 28.0687917,20.9757083 28.0687917,23.5 Z M23.5,0 C10.522125,0 0,10.522125 0,23.5 C0,36.477875 10.522125,47 23.5,47 C36.477875,47 47,36.477875 47,23.5 C47,10.522125 36.477875,0 23.5,0 Z M37.1260833,29.15175 C36.900875,34.1357083 34.1259167,36.8969583 29.1537083,37.1260833 C27.6908333,37.1926667 27.2227917,37.2083333 23.5,37.2083333 C19.7772083,37.2083333 19.311125,37.1926667 17.84825,37.1260833 C12.86625,36.8969583 10.1030417,34.1317917 9.87391667,29.15175 C9.80733333,27.6908333 9.79166667,27.2227917 9.79166667,23.5 C9.79166667,19.7772083 9.80733333,19.311125 9.87391667,17.84825 C10.1030417,12.86625 12.8682083,10.1030417 17.84825,9.875875 C19.311125,9.80733333 19.7772083,9.79166667 23.5,9.79166667 C27.2227917,9.79166667 27.6908333,9.80733333 29.1537083,9.875875 C34.1376667,10.105 36.9028333,12.8760417 37.1260833,17.84825 C37.1926667,19.311125 37.2083333,19.7772083 37.2083333,23.5 C37.2083333,27.2227917 37.1926667,27.6908333 37.1260833,29.15175 Z" id="Shape"></path>
                    </g>
                </g>
            </g>
        </g>
    </g>
</svg>