<?xml version="1.0" encoding="UTF-8"?>
<svg width="47px" height="47px" viewBox="0 0 47 47" version="1.1" xmlns="http://www.w3.org/2000/svg" xmlns:xlink="http://www.w3.org/1999/xlink">
    <!-- Generator: Sketch 55.2 (78181) - https://sketchapp.com -->
    <title>iconmonstr-linkedin-4</title>
    <desc>Created with Sketch.</desc>
    <g id="Fiche-Entreprise" stroke="none" stroke-width="1" fill="none" fill-rule="evenodd">
        <g id="Desktop-HD" transform="translate(-1164.000000, -1096.000000)" fill="#101357">
            <g id="sidebar" transform="translate(971.000000, 336.000000)">
                <g id="mediasSociaux" transform="translate(71.000000, 726.000000)">
                    <g id="iconmonstr-linkedin-4" transform="translate(122.000000, 34.000000)">
                        <path d="M23.5,0 C10.522125,0 0,10.522125 0,23.5 C0,36.477875 10.522125,47 23.5,47 C36.477875,47 47,36.477875 47,23.5 C47,10.522125 36.477875,0 23.5,0 Z M19.5833333,31.3333333 L15.6666667,31.3333333 L15.6666667,19.5833333 L19.5833333,19.5833333 L19.5833333,31.3333333 Z M17.625,17.8384583 C16.4362917,17.8384583 15.4708333,16.867125 15.4708333,15.6666667 C15.4708333,14.4681667 16.4343333,13.494875 17.625,13.494875 C18.8156667,13.494875 19.7791667,14.4681667 19.7791667,15.6666667 C19.7791667,16.867125 18.8137083,17.8384583 17.625,17.8384583 Z M33.2916667,31.3333333 L29.3789167,31.3333333 L29.3789167,25.7305417 C29.3789167,22.0469167 25.4583333,22.3582917 25.4583333,25.7305417 L25.4583333,31.3333333 L21.5416667,31.3333333 L21.5416667,19.5833333 L25.4583333,19.5833333 L25.4583333,21.7237917 C27.166,18.559125 33.2916667,18.324125 33.2916667,24.7552917 L33.2916667,31.3333333 Z" id="Shape"></path>
                    </g>
                </g>
            </g>
        </g>
    </g>
</svg>