<?xml version="1.0" encoding="UTF-8"?>
<svg width="578px" height="441px" viewBox="0 0 578 441" version="1.1" xmlns="http://www.w3.org/2000/svg" xmlns:xlink="http://www.w3.org/1999/xlink">
    <!-- Generator: Sketch 55.2 (78181) - https://sketchapp.com -->
    <title>jedepenselocalLogoNb</title>
    <desc>Created with Sketch.</desc>
    <g id="Page-1" stroke="none" stroke-width="1" fill="none" fill-rule="evenodd">
        <g id="logoFinal" transform="translate(-1193.000000, -1837.000000)" fill="#000000">
            <g id="jedepenselocalLogoNb" transform="translate(1193.500000, 1837.000000)">
                <path d="M220.24121,209.919223 L227.866699,209.919223 C234.575065,209.919223 239.108386,208.595913 241.466796,205.949253 C243.825206,203.302592 245.004394,198.44172 245.004394,191.366489 C245.004394,187.330987 244.847169,184.212692 244.532714,182.011509 C244.218259,179.810326 243.484543,177.805708 242.331542,175.997593 C241.178541,174.189479 239.462169,172.944781 237.182372,172.263462 C234.902576,171.582144 231.823586,171.24149 227.945312,171.24149 L220.24121,171.24149 L220.24121,209.919223 Z M196.5,284.837679 L196.5,154.496861 L233.998534,154.496861 C256.219999,154.496861 267.330565,166.839023 267.330565,191.523716 C267.330565,203.630221 264.290882,212.500331 258.211425,218.134311 C252.131967,223.768291 243.563205,226.585238 232.504882,226.585238 L220.24121,226.585238 L220.24121,284.837679 L196.5,284.837679 Z M279.987303,284.837679 L279.987303,154.496861 L334.544919,154.496861 L334.544919,171.24149 L303.728513,171.24149 L303.728513,208.661411 L328.09863,208.661411 L328.09863,225.406039 L303.728513,225.406039 L303.728513,268.407503 L334.937985,268.407503 L334.937985,284.837679 L279.987303,284.837679 Z M348.616696,284.837679 L348.616696,154.496861 L364.968258,154.496861 L396.88525,228.314731 L396.88525,154.496861 L416.53857,154.496861 L416.53857,284.837679 L400.97314,284.837679 L368.741696,207.246372 L368.741696,284.837679 L348.616696,284.837679 Z M468.895014,286.409944 C445.939821,286.409944 433.885906,273.150637 432.732905,246.631625 L453.408198,242.307894 C453.932289,259.550493 458.858672,268.171663 468.187494,268.171663 C471.803723,268.171663 474.48965,267.071088 476.245356,264.869906 C478.001061,262.668723 478.8789,259.707652 478.8789,255.986605 C478.8789,252.370376 478.223796,249.055549 476.913568,246.042025 C475.603341,243.028501 474.083499,240.56531 472.353998,238.652377 C470.624497,236.739444 468.161306,234.367967 464.96435,231.537875 L447.826655,216.679965 C442.79538,212.2776 439.048184,207.704973 436.584956,202.961948 C434.121728,198.218923 432.890132,192.28368 432.890132,185.15604 C432.890132,175.041081 435.864304,167.179832 441.812739,161.572056 C447.761174,155.964281 455.923771,153.108027 466.300776,153.003209 C471.070005,152.9508 475.288876,153.540393 478.957514,154.772008 C482.626152,156.003622 485.652733,157.654484 488.037347,159.724644 C490.421962,161.794804 492.413479,164.375914 494.011957,167.468052 C495.610435,170.56019 496.802724,173.7702 497.588861,177.098179 C498.374998,180.426158 498.925285,184.134047 499.23974,188.221958 L478.957514,192.231235 C478.852695,189.61078 478.682368,187.331017 478.446527,185.39188 C478.210686,183.452743 477.804522,181.48743 477.228022,179.495884 C476.651521,177.504338 475.904703,175.892782 474.987543,174.661167 C474.070384,173.429553 472.838788,172.446897 471.292719,171.713169 C469.74665,170.979442 467.951665,170.691196 465.907709,170.848423 C462.396299,171.05806 459.710372,172.224145 457.849848,174.346714 C455.989325,176.469283 455.059077,179.312435 455.059077,182.876255 C455.059077,187.068984 455.884508,190.514832 457.535395,193.213901 C459.186282,195.912971 461.767392,198.808531 465.278803,201.900669 L482.259271,216.679965 C485.089364,219.248012 487.552555,221.737408 489.64892,224.148227 C491.745284,226.559046 493.749903,229.310483 495.662836,232.402621 C497.575768,235.494759 499.030099,238.9013 500.025873,242.622348 C501.021646,246.343395 501.519525,250.274019 501.519525,254.414339 C501.519525,263.900389 498.519148,271.604414 492.518304,277.526644 C486.517461,283.448874 478.643109,286.409944 468.895014,286.409944 Z M515.434075,284.837679 L515.434075,154.496861 L569.991691,154.496861 L569.991691,171.24149 L539.175286,171.24149 L539.175286,208.661411 L563.545403,208.661411 L563.545403,225.406039 L539.175286,225.406039 L539.175286,268.407503 L570.384758,268.407503 L570.384758,284.837679 L515.434075,284.837679 Z" id="PENSE" fill-rule="nonzero"></path>
                <path d="M196.5,439 L196.5,309 L220.262518,309 L220.262518,422.612786 L251.5,422.612786 L251.5,439 L196.5,439 Z M298,441 C284.610812,441 275.013627,437.368726 269.208159,430.10607 C263.402691,422.843413 260.5,412.210834 260.5,398.208014 L260.5,350.243371 C260.5,343.346459 261.153759,337.364001 262.461297,332.295816 C263.768835,327.227631 265.873939,322.838754 268.776674,319.129051 C271.679408,315.419349 275.562737,312.637114 280.426778,310.782263 C285.290819,308.927412 291.148501,308 298,308 C311.336887,308 320.920996,311.579025 326.752615,318.737183 C332.584234,325.895341 335.5,336.397299 335.5,350.243371 L335.5,398.208014 C335.5,405.000427 334.833166,410.969823 333.499477,416.116382 C332.165788,421.262941 330.047609,425.730191 327.144874,429.518268 C324.24214,433.306344 320.358811,436.166952 315.49477,438.100177 C310.630729,440.033402 304.799197,441 298,441 Z M292,421.9808 C293.684219,422.66027 295.684199,423 298,423 C300.315801,423 302.289466,422.66027 303.921053,421.9808 C305.55264,421.30133 306.855258,420.412805 307.828947,419.3152 C308.802636,418.217595 309.565787,416.780276 310.118421,415.0032 C310.671055,413.226124 311.039473,411.449076 311.223684,409.672 C311.407896,407.894924 311.5,405.778146 311.5,403.3216 L311.5,344.2864 C311.5,341.150384 311.342107,338.537077 311.026316,336.4464 C310.710525,334.355723 310.09211,332.382676 309.171053,330.5272 C308.249995,328.671724 306.86843,327.286671 305.026316,326.372 C303.184201,325.457329 300.842119,325 298,325 C295.157881,325 292.802641,325.457329 290.934211,326.372 C289.06578,327.286671 287.684215,328.671724 286.789474,330.5272 C285.894732,332.382676 285.289475,334.355723 284.973684,336.4464 C284.657893,338.537077 284.5,341.150384 284.5,344.2864 L284.5,403.3216 C284.5,405.778146 284.592104,407.894924 284.776316,409.672 C284.960527,411.449076 285.328945,413.226124 285.881579,415.0032 C286.434213,416.780276 287.184206,418.217595 288.131579,419.3152 C289.078952,420.412805 290.368413,421.30133 292,421.9808 Z M387.43913,441 C381.856494,441 376.926108,440.294645 372.647826,438.883913 C368.369544,437.473181 364.834797,435.513861 362.043478,433.005893 C359.25216,430.497925 356.982617,427.389137 355.234783,423.679434 C353.486948,419.969732 352.260873,415.98578 351.556522,411.72746 C350.85217,407.46914 350.5,402.675336 350.5,397.345905 L350.5,352.045963 C350.5,346.403036 350.865214,341.400238 351.595652,337.037419 C352.326091,332.6746 353.552165,328.625338 355.273913,324.889511 C356.995661,321.153684 359.25216,318.084082 362.043478,315.680613 C364.834797,313.277144 368.3565,311.396196 372.608696,310.037714 C376.860891,308.679231 381.80432,308 387.43913,308 C393.908728,308 399.439107,308.862101 404.030435,310.586329 C408.621762,312.310557 412.247813,314.844611 414.908696,318.188568 C417.569579,321.532525 419.5,325.438104 420.7,329.905421 C421.900006,334.372739 422.5,339.584531 422.5,345.540955 L422.5,356.670006 L399.726087,356.670006 L399.726087,345.619328 C399.726087,339.140412 399.38696,334.777658 398.708696,332.530937 C397.352167,328.141993 394.039157,325.790809 388.769565,325.477313 L387.517391,325.477313 C385.534773,325.477313 383.800007,325.712431 382.313043,326.182675 C380.82608,326.652919 379.613048,327.397461 378.673913,328.416323 C377.734778,329.435185 376.978264,330.519342 376.404348,331.668827 C375.830432,332.818313 375.400001,334.320458 375.113043,336.175309 C374.826086,338.030161 374.643479,339.7413 374.565217,341.30878 C374.486956,342.87626 374.447826,344.861705 374.447826,347.265174 L374.447826,402.283441 C374.447826,409.911843 375.39999,415.345692 377.304348,418.58515 C379.208705,421.824609 382.613019,423.444313 387.517391,423.444313 C389.186965,423.444313 390.660863,423.248381 391.93913,422.856511 C393.217398,422.464642 394.286952,421.96828 395.147826,421.367413 C396.0087,420.766546 396.739127,419.904445 397.33913,418.781084 C397.939133,417.657724 398.395651,416.612753 398.708696,415.64614 C399.021741,414.679528 399.256521,413.334128 399.413043,411.6099 C399.569566,409.885672 399.660869,408.422713 399.686957,407.220978 C399.713044,406.019244 399.726087,404.373414 399.726087,402.283441 L399.726087,390.684148 L422.5,390.684148 L422.5,401.342958 C422.5,406.202146 422.160873,410.564899 421.482609,414.431349 C420.804344,418.2978 419.643486,421.929074 418,425.32528 C416.356514,428.721486 414.230448,431.542908 411.621739,433.789629 C409.01303,436.03635 405.673933,437.799738 401.604348,439.079847 C397.534762,440.359955 392.81307,441 387.43913,441 Z M462.5,393 L479.5,393 L471,340 L462.5,393 Z M432.5,439 L459.105263,309 L483.973684,309 L510.5,439 L488.315789,439 L483.026316,408.813028 L460.368421,408.813028 L455,439 L432.5,439 Z M522.5,439 L522.5,309 L546.262518,309 L546.262518,422.612786 L577.5,422.612786 L577.5,439 L522.5,439 Z" id="LOCAL" fill-rule="nonzero"></path>
                <path d="M196.5,133.092282 L196.5,116.426267 C203.470412,116.478676 208.108549,115.43051 210.41455,113.281736 C212.720552,111.132962 213.873535,106.704458 213.873535,99.9960917 L213.873535,0 L237.614745,0 L237.536132,100.546385 C237.483723,106.258978 236.998946,111.067442 236.081786,114.971921 C235.164627,118.876401 233.592377,122.230534 231.36499,125.034421 C229.137602,127.838309 226.097919,129.882234 222.245849,131.166257 C218.393779,132.45028 213.611519,133.092282 207.898926,133.092282 L196.5,133.092282 Z M257.189452,130.340818 L257.189452,0 L311.747068,0 L311.747068,16.7446286 L280.930662,16.7446286 L280.930662,54.1645497 L305.300779,54.1645497 L305.300779,70.9091782 L280.930662,70.9091782 L280.930662,113.910642 L312.140134,113.910642 L312.140134,130.340818 L257.189452,130.340818 Z" id="JE" fill-rule="nonzero"></path>
                <path d="M21,306 L21,176 L49.6395939,176 C55.9340416,176 61.2973552,176.940883 65.7296954,178.822678 C70.1620357,180.704473 73.6108168,183.396444 76.0761421,186.898673 C78.5414675,190.400902 80.3117544,194.308181 81.3870558,198.620627 C82.4623573,202.933073 83,207.833507 83,213.322075 L83,267.266586 C83,273.173331 82.4623573,278.374324 81.3870558,282.869723 C80.3117544,287.365121 78.567694,291.403078 76.1548223,294.983715 C73.7419507,298.564352 70.371849,301.295527 66.0444162,303.177322 C61.7169834,305.059117 56.4848023,306 50.3477157,306 L21,306 Z M30.5,299.5 L50.5071048,299.5 C54.5710683,299.5 58.0748817,298.907501 61.0186501,297.722485 C63.9624185,296.537469 66.2939523,294.996971 68.0133215,293.100945 C69.7326907,291.20492 71.0873248,288.755923 72.0772647,285.753883 C73.0672045,282.751842 73.7184709,279.77618 74.0310835,276.826806 C74.3436961,273.877433 74.5,270.427771 74.5,266.477718 L74.5,213.784267 C74.5,209.728879 74.2915947,206.173884 73.874778,203.119176 C73.4579612,200.064468 72.7155175,197.194139 71.6474245,194.508103 C70.5793315,191.822066 69.1335201,189.636403 67.3099467,187.951047 C65.4863734,186.26569 63.1418142,184.935859 60.2761989,183.961512 C57.4105837,182.987166 54.0239982,182.5 50.116341,182.5 L30.5,182.5 L30.5,299.5 Z M126.5,165.5 L136.863636,133.5 L145.5,133.5 L130.975207,165.5 L126.5,165.5 Z M106.5,306 L106.5,176 L151.111399,176 L151.111399,182.978287 L115.204663,182.978287 L115.204663,235.119421 L144.660622,235.119421 L144.660622,241.940893 L115.204663,241.940893 L115.204663,299.100121 L151.5,299.100121 L151.5,306 L106.5,306 Z" id="DÉ" fill-rule="nonzero" transform="translate(86.250000, 219.750000) rotate(-90.000000) translate(-86.250000, -219.750000) "></path>
                <path d="M42.5,374 L42.5,338.331075 L42.5,309 L71.8310787,308.999997 C59.4883537,315.787521 49.2875215,325.988353 42.5,338.331075 L42.5,374 Z M107.486787,309 L107.5,309 L172.500001,308.999999 L172.500001,373.999999 C172.500001,409.898508 143.39851,438.999999 107.500001,438.999999 C71.6014935,438.999999 42.5000027,409.898509 42.5000013,374.000001 L107.486787,309 Z M129,374 C129,362.678163 119.150264,353.5 107,353.5 C94.8497355,353.5 85,362.678163 85,374 C85,385.321837 94.8497355,394.5 107,394.5 C119.150264,394.5 129,385.321837 129,374 Z" id="Combined-Shape"></path>
                <path d="M42.5,374 C42.5,338.101491 71.6014913,309 107.5,309 L172.5,309 L172.5,374 C172.5,409.898509 143.398509,439 107.5,439 C71.6014913,439 42.5,409.898509 42.5,374 Z M129,374 C129,362.678163 119.150264,353.5 107,353.5 C94.8497355,353.5 85,362.678163 85,374 C85,385.321837 94.8497355,394.5 107,394.5 C119.150264,394.5 129,385.321837 129,374 Z" id="Combined-Shape"></path>
            </g>
        </g>
    </g>
</svg>