<?xml version="1.0" encoding="UTF-8"?>
<svg width="151px" height="140px" viewBox="0 0 151 140" version="1.1" xmlns="http://www.w3.org/2000/svg" xmlns:xlink="http://www.w3.org/1999/xlink">
    <!-- Generator: Sketch 55.2 (78181) - https://sketchapp.com -->
    <title>entreprise</title>
    <desc>Created with Sketch.</desc>
    <g id="Entreprise" stroke="none" stroke-width="1" fill="none" fill-rule="evenodd">
        <g id="Desktop-HD" transform="translate(-644.000000, -218.000000)" fill="#101357" fill-rule="nonzero">
            <g id="hero" transform="translate(140.000000, 218.000000)">
                <g id="entreprise" transform="translate(504.000000, 0.000000)">
                    <path d="M142.752525,140 L10.378106,140 C9.19815229,140 8.24303469,139.046957 8.24303469,137.869565 L8.24303469,68.573913 C4.16461283,67.0852174 0.000370717987,63.1443478 0.000370717987,53.2608696 C0.000370717987,53.253913 0.000370717987,53.2469565 0.000370717987,53.2382609 C-0.00618353174,52.8834783 0.0739905731,52.5217391 0.255253767,52.186087 L19.8473649,15.7565217 C19.8386503,15.68 19.8351645,15.6017391 19.8351645,15.5217391 L19.8351645,2.13043478 C19.8351645,0.953043478 20.7902821,0 21.9702358,0 L128.723799,0 C129.903753,0 130.858871,0.953043478 130.858871,2.13043478 L130.858871,14.8121739 C130.935559,14.9113043 131.005275,15.0173913 131.066277,15.1321739 L150.74902,52.0973913 C150.933769,52.4434783 151.0122,52.8191304 150.998257,53.1843478 C150.998257,53.2104348 151,53.2365217 151,53.2626087 C151,58.4608696 148.044016,63.4417391 144.889339,66.3965217 L144.889339,137.871304 C144.889339,139.046957 143.932478,140 142.752525,140 Z M61.9265695,135.73913 L140.617453,135.73913 L140.617453,68.24 C138.635759,68.9582609 136.420513,69.3321739 134.004833,69.3321739 C127.416613,69.3321739 122.36913,67.0469565 119.531664,62.9182609 C116.617509,67.0034783 111.413164,69.3321739 104.790086,69.3321739 C98.1443499,69.3321739 92.9278044,66.9895652 90.0206216,62.88 C87.1116959,66.9913043 81.8934075,69.333913 75.2476713,69.333913 C69.5919111,69.333913 64.9714426,67.6382609 61.9248266,64.6017391 L61.9248266,135.73913 L61.9265695,135.73913 Z M25.3253478,135.73913 L57.656427,135.73913 L57.656427,65.7913043 C54.6655843,68.08 50.5610187,69.3373913 45.6878275,69.3373913 C39.028148,69.3373913 33.7994021,66.9947826 30.8869906,62.8852174 C29.5170591,64.8226087 27.6312247,66.3669565 25.3253478,67.4608696 L25.3253478,135.73913 Z M12.5149201,135.73913 L21.0552052,135.73913 L21.0552052,68.8643478 C19.5005248,69.186087 17.827326,69.3513043 16.0530382,69.3513043 C14.7667667,69.3513043 13.5902989,69.2643478 12.5149201,69.1026087 L12.5149201,135.73913 Z M4.46439427,55.3913043 C4.46962302,55.4121739 4.47659468,55.4347826 4.48182342,55.4573913 L4.62997123,56.053913 C5.56940258,59.8678261 6.85567409,65.0904348 16.0530382,65.0904348 C19.2966037,65.0904348 27.0334048,64.3321739 28.8164072,57.3095652 C29.0569295,56.3652174 29.9092151,55.7026087 30.8869906,55.7026087 C31.8647661,55.7026087 32.7170516,56.3652174 32.957574,57.3095652 C34.6743456,64.0678261 41.6721506,65.0765217 45.6895704,65.0765217 C49.7000185,65.0765217 56.6856232,64.066087 58.4041377,57.3026087 C58.64466,56.3582609 59.4969456,55.6956522 60.4747211,55.6956522 C61.4524966,55.6956522 62.3047822,56.3582609 62.5453045,57.3026087 C64.2620761,64.0626087 71.2441948,65.0730435 75.2529001,65.0730435 C79.2598624,65.0730435 86.2384954,64.0626087 87.955267,57.3008696 C88.1957893,56.3565217 89.0480749,55.693913 90.0258504,55.693913 C91.0036259,55.693913 91.8559115,56.3565217 92.0964338,57.3008696 C93.8132054,64.0626087 100.790095,65.0713043 104.797058,65.0713043 C108.80402,65.0713043 115.779167,64.0608696 117.497682,57.2991304 C117.738204,56.3547826 118.59049,55.6921739 119.568265,55.6921739 C120.546041,55.6921739 121.398326,56.3547826 121.638848,57.2991304 C123.270217,63.7217391 129.269332,65.0713043 134.013547,65.0713043 C142.266251,65.0713043 145.288466,59.9982609 146.370817,55.7408696 C146.402189,55.6191304 146.442276,55.5026087 146.492821,55.3930435 L4.46439427,55.3930435 L4.46439427,55.3913043 Z M5.66874876,51.1304348 L145.400013,51.1304348 L127.897657,18.2608696 L23.3471389,18.2608696 L5.66874876,51.1304348 Z M24.105307,14 L126.588728,14 L126.588728,4.26086957 L24.105307,4.26086957 L24.105307,14 Z M91.8942556,118.333913 C91.3365227,118.333913 90.7770469,118.116522 90.3587472,117.683478 C89.539577,116.838261 89.5622349,115.488696 90.4110346,114.671304 L103.217976,102.321739 C104.065033,101.504348 105.417536,101.525217 106.236706,102.373913 C107.055876,103.21913 107.033218,104.568696 106.184418,105.386087 L93.3774765,117.735652 C92.9644056,118.135652 92.4293306,118.333913 91.8942556,118.333913 Z M85.8271673,108.577391 C85.2694344,108.577391 84.7099586,108.36 84.291659,107.926957 C83.4724887,107.081739 83.4951466,105.732174 84.3439464,104.914783 L109.366982,80.7843478 C110.214039,79.9669565 111.566541,79.9878261 112.385711,80.8365217 C113.204881,81.6817391 113.182223,83.0313043 112.333424,83.8486957 L87.3103883,107.97913 C86.8955744,108.37913 86.3604994,108.577391 85.8271673,108.577391 Z M30.2055107,107.130435 C27.8508321,107.130435 25.9353681,105.21913 25.9353681,102.869565 C25.9353681,100.52 27.8508321,98.6086957 30.2055107,98.6086957 C32.5601893,98.6086957 34.4756532,100.52 34.4756532,102.869565 C34.4756532,105.21913 32.5601893,107.130435 30.2055107,107.130435 Z" id="Shape"></path>
                </g>
            </g>
        </g>
    </g>
</svg>