<?xml version="1.0" encoding="UTF-8"?>
<svg width="47px" height="47px" viewBox="0 0 47 47" version="1.1" xmlns="http://www.w3.org/2000/svg" xmlns:xlink="http://www.w3.org/1999/xlink">
    <!-- Generator: Sketch 55.2 (78181) - https://sketchapp.com -->
    <title>Shape</title>
    <desc>Created with Sketch.</desc>
    <g id="Fiche-Entreprise" stroke="none" stroke-width="1" fill="none" fill-rule="evenodd">
        <g id="Tablet" transform="translate(-647.000000, -446.000000)" fill="#101357">
            <g id="mediasSociaux" transform="translate(464.000000, 412.000000)">
                <g id="iconmonstr-twitter-4" transform="translate(183.000000, 34.000000)">
                    <path d="M23.5,0 C10.522125,0 0,10.522125 0,23.5 C0,36.477875 10.522125,47 23.5,47 C36.477875,47 47,36.477875 47,23.5 C47,10.522125 36.477875,0 23.5,0 Z M35.37925,18.888125 C35.737625,26.7997917 29.8371667,35.620125 19.3914167,35.620125 C16.215,35.620125 13.259875,34.6879583 10.7708333,33.0919167 C13.7553333,33.4444167 16.7339583,32.6140833 19.0976667,30.7634583 C16.638,30.7184167 14.5602083,29.0910417 13.8415,26.8565833 C14.7247083,27.025 15.5942083,26.9760417 16.3834167,26.760625 C13.6789583,26.2162083 11.8107083,23.7800417 11.8714167,21.1735 C12.63125,21.5945417 13.4968333,21.8471667 14.4192083,21.8765417 C11.9145,20.2021667 11.2055833,16.8945417 12.67825,14.3663333 C15.45125,17.7699167 19.5970417,20.0082917 24.2715833,20.2432917 C23.4510417,16.726125 26.12025,13.33625 29.7529583,13.33625 C31.3685833,13.33625 32.8314583,14.0197083 33.857625,15.1124583 C35.138375,14.8617917 36.3447083,14.3917917 37.429625,13.7475 C37.0085833,15.0615417 36.1175417,16.162125 34.95625,16.8592917 C36.0940417,16.7222083 37.1789583,16.420625 38.1855417,15.9721667 C37.4335417,17.1040833 36.4817917,18.095 35.37925,18.888125 L35.37925,18.888125 Z" id="Shape"></path>
                </g>
            </g>
        </g>
    </g>
</svg>