<?xml version="1.0" encoding="UTF-8"?>
<svg width="47px" height="47px" viewBox="0 0 47 47" version="1.1" xmlns="http://www.w3.org/2000/svg" xmlns:xlink="http://www.w3.org/1999/xlink">
    <!-- Generator: Sketch 55.2 (78181) - https://sketchapp.com -->
    <title>iconmonstr-facebook-4</title>
    <desc>Created with Sketch.</desc>
    <g id="Fiche-Entreprise" stroke="none" stroke-width="1" fill="none" fill-rule="evenodd">
        <g id="Desktop-HD" transform="translate(-1042.000000, -1096.000000)" fill="#101357">
            <g id="sidebar" transform="translate(971.000000, 336.000000)">
                <g id="mediasSociaux" transform="translate(71.000000, 726.000000)">
                    <g id="iconmonstr-facebook-4" transform="translate(0.000000, 34.000000)">
                        <path d="M23.5,0 C10.522125,0 0,10.522125 0,23.5 C0,36.477875 10.522125,47 23.5,47 C36.477875,47 47,36.477875 47,23.5 C47,10.522125 36.477875,0 23.5,0 Z M29.375,15.6666667 L26.73125,15.6666667 C25.6776667,15.6666667 25.4583333,16.0994583 25.4583333,17.19025 L25.4583333,19.5833333 L29.375,19.5833333 L28.9657083,23.5 L25.4583333,23.5 L25.4583333,37.2083333 L19.5833333,37.2083333 L19.5833333,23.5 L15.6666667,23.5 L15.6666667,19.5833333 L19.5833333,19.5833333 L19.5833333,15.0635 C19.5833333,11.5992083 21.4065417,9.79166667 25.515125,9.79166667 L29.375,9.79166667 L29.375,15.6666667 Z" id="Shape"></path>
                    </g>
                </g>
            </g>
        </g>
    </g>
</svg>