<?xml version="1.0" encoding="UTF-8"?>
<svg width="126px" height="95px" viewBox="0 0 126 95" version="1.1" xmlns="http://www.w3.org/2000/svg" xmlns:xlink="http://www.w3.org/1999/xlink">
    <!-- Generator: Sketch 55.2 (78181) - https://sketchapp.com -->
    <title>logo/couleur</title>
    <desc>Created with Sketch.</desc>
    <g id="Nav-mobile" stroke="none" stroke-width="1" fill="none" fill-rule="evenodd">
        <g id="Tablet" transform="translate(-23.000000, -30.000000)">
            <g id="header/tablet">
                <g id="logo/renversé" transform="translate(23.000000, 30.000000)">
                    <g id="jedepenselocalLogoRenvere">
                        <path d="M48.0110597,45.2206943 L49.6733634,45.2206943 C51.1357409,45.2206943 52.1239734,44.9356275 52.6380905,44.3654853 C53.1522076,43.795343 53.4092623,42.7482163 53.4092623,41.2240736 C53.4092623,40.3547478 53.3749883,39.6830062 53.3064394,39.2088285 C53.2378904,38.7346507 53.0779453,38.3028168 52.8265991,37.9133137 C52.575253,37.5238106 52.2010956,37.2556784 51.7041157,37.1089091 C51.2071359,36.9621398 50.5359375,36.8887563 49.6905005,36.8887563 L48.0110597,36.8887563 L48.0110597,45.2206943 Z M42.8356401,61.3595906 L42.8356401,33.2816367 L51.0100611,33.2816367 C55.8541867,33.2816367 58.2762131,35.940379 58.2762131,41.2579433 C58.2762131,43.8659207 57.6135832,45.7767153 56.2883036,46.9903844 C54.963024,48.2040536 53.0950932,48.810879 50.6844553,48.810879 L48.0110597,48.810879 L48.0110597,61.3595906 L42.8356401,61.3595906 Z M61.0352944,61.3595906 L61.0352944,33.2816367 L72.9284772,33.2816367 L72.9284772,36.8887563 L66.210714,36.8887563 L66.210714,44.949737 L71.5232308,44.949737 L71.5232308,48.5568565 L66.210714,48.5568565 L66.210714,57.8202104 L73.0141629,57.8202104 L73.0141629,61.3595906 L61.0352944,61.3595906 Z M75.9960272,61.3595906 L75.9960272,33.2816367 L79.5605546,33.2816367 L86.5182378,49.1834454 L86.5182378,33.2816367 L90.8025256,33.2816367 L90.8025256,61.3595906 L87.4093697,61.3595906 L80.3831378,44.64491 L80.3831378,61.3595906 L75.9960272,61.3595906 Z M102.215868,61.6982873 C97.211795,61.6982873 94.5841248,58.841974 94.3327787,53.1292616 L98.8398493,52.1978457 C98.9540976,55.9122378 100.028015,57.7694059 102.061634,57.7694059 C102.849947,57.7694059 103.43546,57.5323207 103.818192,57.0581429 C104.200923,56.5839652 104.392286,55.9460929 104.392286,55.1445068 C104.392286,54.3655005 104.249478,53.6514222 103.963857,53.0022503 C103.678237,52.3530785 103.346922,51.822459 102.969903,51.410376 C102.592884,50.998293 102.055925,50.4874306 101.359011,49.8777735 L97.6231116,46.67709 C96.5263285,45.7287346 95.7094658,44.7437016 95.1724991,43.7219616 C94.6355323,42.7002215 94.367053,41.4216544 94.367053,39.8862218 C94.367053,37.7072623 95.015402,36.0137959 96.3121196,34.8057718 C97.6088372,33.5977476 99.3882269,32.9824548 101.650342,32.9598749 C102.690001,32.948585 103.609686,33.0755949 104.409423,33.3409087 C105.209161,33.6062224 105.868935,33.9618503 106.388764,34.4078032 C106.908594,34.853756 107.342731,35.4097775 107.691188,36.0758843 C108.039645,36.741991 108.299556,37.4334898 108.470928,38.1504014 C108.642301,38.8673129 108.762259,39.6660646 108.830808,40.5466803 L104.409423,41.4103568 C104.386574,40.8458595 104.349444,40.3547543 104.298032,39.9370263 C104.24662,39.5192983 104.158079,39.0959317 104.032406,38.6669138 C103.906733,38.2378959 103.743932,37.8907352 103.543997,37.6254215 C103.344063,37.3601078 103.075584,37.1484245 102.738551,36.9903653 C102.401519,36.832306 102.010224,36.7702123 101.564656,36.8040821 C100.799193,36.8492419 100.21368,37.1004394 99.8080984,37.5576822 C99.4025171,38.014925 99.1997295,38.6273953 99.1997295,39.3951116 C99.1997295,40.2983073 99.3796678,41.04061 99.7395498,41.6220422 C100.099432,42.2034744 100.662096,42.8272345 101.427559,43.4933413 L105.129184,46.67709 C105.746124,47.2302973 106.283083,47.7665617 106.740076,48.2858992 C107.197069,48.8052367 107.634062,49.3979499 108.051068,50.0640567 C108.468074,50.7301635 108.785108,51.4639989 109.00218,52.2655851 C109.219252,53.0671712 109.327786,53.9139044 109.327786,54.8058101 C109.327786,56.8492902 108.673724,58.5088873 107.365582,59.7846511 C106.05744,61.060415 104.340885,61.6982873 102.215868,61.6982873 Z M112.361061,61.3595906 L112.361061,33.2816367 L124.254244,33.2816367 L124.254244,36.8887563 L117.536481,36.8887563 L117.536481,44.949737 L122.848998,44.949737 L122.848998,48.5568565 L117.536481,48.5568565 L117.536481,57.8202104 L124.33993,57.8202104 L124.33993,61.3595906 L112.361061,61.3595906 Z" id="PENSE" fill="#F6F1E5" fill-rule="nonzero"></path>
                        <path d="M42.8356401,94.569161 L42.8356401,66.5646259 L48.0157046,66.5646259 L48.0157046,91.0390356 L54.8252595,91.0390356 L54.8252595,94.569161 L42.8356401,94.569161 Z M64.9619377,95 C62.0431873,95 59.9510676,94.2177528 58.6855156,92.6532349 C57.4199637,91.0887171 56.7871972,88.7982522 56.7871972,85.7817718 L56.7871972,75.4492522 C56.7871972,73.963523 56.9297122,72.6747848 57.2147464,71.5829989 C57.4997806,70.4912131 57.9586788,69.5457632 58.5914548,68.746621 C59.2242308,67.9474788 60.0707697,67.3481311 61.131097,66.94856 C62.1914243,66.5489889 63.4683584,66.3492063 64.9619377,66.3492063 C67.8692867,66.3492063 69.9585562,67.1201982 71.2298088,68.662205 C72.5010614,70.2042118 73.1366782,72.4665383 73.1366782,75.4492522 L73.1366782,85.7817718 C73.1366782,87.2449899 72.9913129,88.5309143 72.700578,89.6395834 C72.4098431,90.7482525 71.9480946,91.7105854 71.3153187,92.5266109 C70.6825427,93.3426364 69.8360038,93.9588671 68.7756765,94.3753215 C67.7153492,94.7917759 66.4441156,95 64.9619377,95 Z M63.6539792,90.9028934 C64.0211273,91.0492645 64.4571091,91.122449 64.9619377,91.122449 C65.4667663,91.122449 65.8970115,91.0492645 66.2526862,90.9028934 C66.6083609,90.7565223 66.8923227,90.5651168 67.1045802,90.3286712 C67.3168377,90.0922256 67.4831992,89.782599 67.6036696,89.3997823 C67.7241401,89.0169656 67.8044525,88.6341546 67.8446094,88.2513379 C67.8847662,87.8685211 67.9048443,87.4125257 67.9048443,86.8833379 L67.9048443,74.1660045 C67.9048443,73.4904456 67.8704247,72.9274883 67.8015844,72.4771156 C67.7327441,72.026743 67.597934,71.6017102 67.3971499,71.2020045 C67.1963658,70.8022988 66.8951941,70.5039314 66.4936259,70.3068934 C66.0920577,70.1098554 65.5815001,70.0113379 64.9619377,70.0113379 C64.3423753,70.0113379 63.8289494,70.1098554 63.4216445,70.3068934 C63.0143396,70.5039314 62.713168,70.8022988 62.5181206,71.2020045 C62.3230731,71.6017102 62.1911313,72.026743 62.122291,72.4771156 C62.0534508,72.9274883 62.0190311,73.4904456 62.0190311,74.1660045 L62.0190311,86.8833379 C62.0190311,87.4125257 62.0391093,87.8685211 62.0792661,88.2513379 C62.1194229,88.6341546 62.1997353,89.0169656 62.3202058,89.3997823 C62.4406763,89.782599 62.6041694,90.0922256 62.8106902,90.3286712 C63.017211,90.5651168 63.2983045,90.7565223 63.6539792,90.9028934 Z M84.4590492,95 C83.242073,95 82.1672831,94.8480527 81.2346472,94.5441535 C80.3020113,94.2402544 79.5314608,93.8181786 78.9229728,93.2779134 C78.3144847,92.7376482 77.8197401,92.0679546 77.4387242,91.2688124 C77.0577083,90.4696702 76.7904325,89.6114493 76.6368888,88.6941241 C76.4833451,87.7767989 76.4065744,86.74412 76.4065744,85.5960565 L76.4065744,75.8375658 C76.4065744,74.6219692 76.4861885,73.5442689 76.645419,72.6044327 C76.8046495,71.6645964 77.0719253,70.7923063 77.4472544,69.9875364 C77.8225835,69.1827664 78.3144847,68.5215143 78.9229728,68.0037601 C79.5314608,67.486006 80.2991679,67.0808132 81.226117,66.7881696 C82.1530662,66.495526 83.2306994,66.3492063 84.4590492,66.3492063 C85.8693767,66.3492063 87.0749611,66.5349197 88.0758387,66.906352 C89.0767163,67.2777843 89.8671703,67.823669 90.4472243,68.5440226 C91.0272784,69.2643761 91.4480956,70.105714 91.7096886,71.0680613 C91.9712816,72.0304086 92.1020761,73.1531303 92.1020761,74.4362601 L92.1020761,76.8336747 L87.1375207,76.8336747 L87.1375207,74.4531433 C87.1375207,73.0574583 87.0635933,72.1176361 86.9157364,71.6336485 C86.6200226,70.6881845 85.8978093,70.1816935 84.7490748,70.1141604 L84.4761095,70.1141604 C84.0439124,70.1141604 83.6657456,70.1648095 83.3415977,70.2661092 C83.0174499,70.3674089 82.7530174,70.5277977 82.5482925,70.7472804 C82.3435675,70.9667632 82.1786526,71.2003118 82.053543,71.4479333 C81.9284333,71.6955549 81.8346024,72.0191463 81.7720475,72.4187174 C81.7094927,72.8182885 81.6696857,73.1869014 81.6526252,73.5245672 C81.6355648,73.8622329 81.6270348,74.2899364 81.6270348,74.8076905 L81.6270348,86.6596983 C81.6270348,88.3030048 81.8346,89.4735618 82.2497367,90.1714043 C82.6648734,90.8692468 83.4069903,91.2181628 84.4761095,91.2181628 C84.840065,91.2181628 85.1613646,91.1759552 85.4400181,91.0915388 C85.7186715,91.0071223 85.951827,90.9001964 86.1394915,90.7707579 C86.327156,90.6413194 86.4863842,90.455606 86.6171807,90.2136123 C86.7479772,89.9716185 86.8474948,89.7465114 86.9157364,89.5382842 C86.9839781,89.330057 87.0351585,89.0402316 87.0692794,88.6687993 C87.1034002,88.297367 87.1233037,87.982217 87.1289905,87.72334 C87.1346773,87.4644629 87.1375207,87.1099192 87.1375207,86.6596983 L87.1375207,84.1609844 L92.1020761,84.1609844 L92.1020761,86.4570998 C92.1020761,87.5038636 92.0281488,88.4436858 91.8802919,89.2765946 C91.7324349,90.1095033 91.4793759,90.8917505 91.1211073,91.6233596 C90.7628386,92.3549687 90.299371,92.9627579 89.7306905,93.4467454 C89.1620101,93.930733 88.43411,94.3106012 87.5469686,94.5863616 C86.6598271,94.8621219 85.6305309,95 84.4590492,95 Z M100.821799,84.6598639 L104.527682,84.6598639 L102.67474,73.2426304 L100.821799,84.6598639 Z M94.2820069,94.569161 L100.08177,66.5646259 L105.502914,66.5646259 L111.285467,94.569161 L106.449463,94.569161 L105.296394,88.0662985 L100.35713,88.0662985 L99.1868512,94.569161 L94.2820069,94.569161 Z M113.901384,94.569161 L113.901384,66.5646259 L119.081449,66.5646259 L119.081449,91.0390356 L125.891003,91.0390356 L125.891003,94.569161 L113.901384,94.569161 Z" id="LOCAL" fill="#F6F1E5" fill-rule="nonzero"></path>
                        <path d="M42.8356401,28.6706731 L42.8356401,25.0804884 C44.3551418,25.0917783 45.3662236,24.8659828 45.8689159,24.403095 C46.3716081,23.9402073 46.6229505,22.9862212 46.6229505,21.5411082 L46.6229505,0 L51.7983701,0 L51.7812329,21.659652 C51.7698081,22.8902561 51.6641301,23.926093 51.4641956,24.767194 C51.2642612,25.6082949 50.9215216,26.3308406 50.4359666,26.9348526 C49.9504115,27.5388647 49.2877817,27.979166 48.4480571,28.2557697 C47.6083325,28.5323733 46.5658329,28.6706731 45.320527,28.6706731 L42.8356401,28.6706731 Z M56.0655206,28.0779539 L56.0655206,0 L67.9587034,0 L67.9587034,3.60711953 L61.2409402,3.60711953 L61.2409402,11.6681003 L66.553457,11.6681003 L66.553457,15.2752198 L61.2409402,15.2752198 L61.2409402,24.5385737 L68.0443891,24.5385737 L68.0443891,28.0779539 L56.0655206,28.0779539 Z" id="JE" fill="#F6F1E5" fill-rule="nonzero"></path>
                        <path d="M4.57785467,65.9183673 L4.57785467,37.9138322 L10.8210879,37.9138322 C12.193234,37.9138322 13.3623992,38.1165168 14.3286187,38.5218921 C15.2948382,38.9272673 16.0466486,39.5071705 16.5840725,40.2616189 C17.1214964,41.0160673 17.5074067,41.8577714 17.7418149,42.7867564 C17.9762232,43.7157414 18.0934256,44.7713904 18.0934256,45.9537349 L18.0934256,57.5744347 C18.0934256,58.8468626 17.9762232,59.967258 17.7418149,60.9356545 C17.5074067,61.904051 17.1272136,62.7739057 16.6012242,63.5452448 C16.0752349,64.3165839 15.3405761,64.9049322 14.3972257,65.3103075 C13.4538753,65.7156828 12.313296,65.9183673 10.9754536,65.9183673 L4.57785467,65.9183673 Z M6.64878893,64.5181406 L11.0101993,64.5181406 C11.8961152,64.5181406 12.6599223,64.3905047 13.3016434,64.1352292 C13.9433646,63.8799536 14.4516228,63.5481003 14.8264334,63.1396594 C15.201244,62.7312185 15.4965449,62.2036569 15.7123449,61.5569588 C15.9281449,60.9102607 16.0701165,60.269245 16.1382639,59.6338925 C16.2064113,58.99854 16.2404844,58.2554156 16.2404844,57.404497 L16.2404844,46.0533002 C16.2404844,45.1796905 16.1950535,44.4138753 16.1041904,43.7558316 C16.0133272,43.0977879 15.8514796,42.4794631 15.6186427,41.9008384 C15.3858058,41.3222138 15.0706289,40.8513793 14.6731026,40.4883207 C14.2755762,40.1252621 13.7644785,39.8387905 13.1397942,39.6288972 C12.5151099,39.419004 11.7768577,39.314059 10.9250155,39.314059 L6.64878893,39.314059 L6.64878893,64.5181406 Z M27.5761246,35.6519274 L29.8353256,28.7585034 L31.7179931,28.7585034 L28.5516886,35.6519274 L27.5761246,35.6519274 Z M23.216263,65.9183673 L23.216263,37.9138322 L32.9412392,37.9138322 L32.9412392,39.4170913 L25.1138193,39.4170913 L25.1138193,50.6493084 L31.5350144,50.6493084 L31.5350144,52.1187864 L25.1138193,52.1187864 L25.1138193,64.4319988 L33.0259516,64.4319988 L33.0259516,65.9183673 L23.216263,65.9183673 Z" id="DÉ" fill="#FEA49F" fill-rule="nonzero" transform="translate(18.801903, 47.338435) rotate(-90.000000) translate(-18.801903, -47.338435) "></path>
                        <path d="M12.3748341,89.2584976 C10.5304008,86.8586428 9.43198877,83.8425745 9.43198877,80.5668934 C9.43198877,73.4840036 14.5674922,67.6149045 21.2760297,66.5646259 L23.6015387,66.5646259 C30.596383,66.5646259 36.393283,71.6936356 37.4365239,78.3959405 L37.4365239,80.5668934 C37.4365239,85.0612627 35.3687667,89.0669116 32.1434294,91.6627894 C29.7796023,93.4852198 26.8171545,94.569161 23.6015387,94.569161 L23.4342563,94.569161 C18.9608835,94.569161 14.9716752,92.4962057 12.3748341,89.2584976 Z M9.26470646,73.1074167 L9.26470646,66.5646259 L15.4572464,66.5646259 C12.8279164,68.1018569 10.6719193,70.3757013 9.26470646,73.1074167 Z M28.1211073,80.5668934 C28.1211073,78.1279489 25.9739331,76.1507937 23.3252595,76.1507937 C20.6765859,76.1507937 18.5294118,78.1279489 18.5294118,80.5668934 C18.5294118,83.005838 20.6765859,84.9829932 23.3252595,84.9829932 C25.9739331,84.9829932 28.1211073,83.005838 28.1211073,80.5668934 Z" id="Combined-Shape" fill="#FEA49F"></path>
                        <path d="M9.26470795,80.5668934 C9.26470795,72.8336546 15.5337367,66.5646259 23.2669755,66.5646259 L37.6038063,66.5646259 L37.6038063,80.3996118 C37.6038063,88.2252377 31.259883,94.569161 23.4342571,94.569161 L23.2669755,94.569161 C15.5337367,94.569161 9.26470795,88.3001323 9.26470795,80.5668934 Z M28.1211073,80.5668934 C28.1211073,78.1279489 25.9739331,76.1507937 23.3252595,76.1507937 C20.6765859,76.1507937 18.5294118,78.1279489 18.5294118,80.5668934 C18.5294118,83.005838 20.6765859,84.9829932 23.3252595,84.9829932 C25.9739331,84.9829932 28.1211073,83.005838 28.1211073,80.5668934 Z" id="Combined-Shape" fill="#FEA49F"></path>
                    </g>
                </g>
            </g>
        </g>
    </g>
</svg>