<?xml version="1.0" encoding="UTF-8"?>
<svg width="130px" height="99px" viewBox="0 0 130 99" version="1.1" xmlns="http://www.w3.org/2000/svg" xmlns:xlink="http://www.w3.org/1999/xlink">
    <!-- Generator: Sketch 55.2 (78181) - https://sketchapp.com -->
    <title>logo/couleur</title>
    <desc>Created with Sketch.</desc>
    <g id="Symbols" stroke="none" stroke-width="1" fill="none" fill-rule="evenodd">
        <g id="header/desktop" transform="translate(9.000000, -12.000000)">
            <g id="Group" transform="translate(-9.000000, 12.000000)">
                <g id="logo/couleur">
                    <g id="jedepenselocalLogoCouleur">
                        <path d="M49.5352203,47.1247236 L51.2502955,47.1247236 C52.7590977,47.1247236 53.7787027,46.8276539 54.309141,46.2335057 C54.8395792,45.6393574 55.1047944,44.5481412 55.1047944,42.9598241 C55.1047944,42.0538951 55.0694324,41.3538696 54.9987073,40.8597265 C54.9279822,40.3655834 54.7629594,39.915567 54.503634,39.5096637 C54.2443086,39.1037605 53.8582732,38.8243385 53.3455162,38.6713895 C52.8327592,38.5184404 52.140253,38.4419671 51.2679767,38.4419671 L49.5352203,38.4419671 L49.5352203,47.1247236 Z M44.1955017,63.9431524 L44.1955017,34.6829688 L52.6294281,34.6829688 C57.6273355,34.6829688 60.1262516,37.4536581 60.1262516,42.9951199 C60.1262516,45.7129068 59.4425859,47.704156 58.0752339,48.9689269 C56.7078819,50.2336979 54.7806517,50.8660739 52.2934856,50.8660739 L49.5352203,50.8660739 L49.5352203,63.9431524 L44.1955017,63.9431524 Z M62.9729228,63.9431524 L62.9729228,34.6829688 L75.2436669,34.6829688 L75.2436669,38.4419671 L68.3126414,38.4419671 L68.3126414,46.8423575 L73.7938095,46.8423575 L73.7938095,50.6013558 L68.3126414,50.6013558 L68.3126414,60.2547456 L75.3320728,60.2547456 L75.3320728,63.9431524 L62.9729228,63.9431524 Z M78.4085995,63.9431524 L78.4085995,34.6829688 L82.0862865,34.6829688 L89.2648486,51.2543273 L89.2648486,34.6829688 L93.6851454,34.6829688 L93.6851454,63.9431524 L90.1842703,63.9431524 L82.9349835,46.5246957 L82.9349835,63.9431524 L78.4085995,63.9431524 Z M105.460816,64.2961099 C100.297884,64.2961099 97.5867954,61.3195308 97.32747,55.3662831 L101.977622,54.3956498 C102.095498,58.2664373 103.203508,60.201802 105.301686,60.201802 C106.115024,60.201802 106.719125,59.9547342 107.114007,59.4605911 C107.508889,58.966448 107.706327,58.3017178 107.706327,57.4663807 C107.706327,56.6545742 107.558985,55.9104294 107.264297,55.233924 C106.969609,54.5574186 106.627777,54.0044573 106.238789,53.5750234 C105.8498,53.1455895 105.295795,52.6132172 104.576757,51.9778903 L100.722258,48.6424412 C99.5906564,47.654155 98.7478615,46.627647 98.1938482,45.5628863 C97.6398349,44.4981256 97.3628324,43.165724 97.3628324,41.5656417 C97.3628324,39.2949365 98.031764,37.5301663 99.3696472,36.2712779 C100.70753,35.0123896 102.543409,34.3711897 104.877337,34.3476591 C105.950001,34.3358938 106.898882,34.4682516 107.724008,34.7447364 C108.549134,35.0212212 109.229853,35.391823 109.766185,35.8565528 C110.302517,36.3212826 110.750436,36.9007155 111.109956,37.5948689 C111.469475,38.2890222 111.737637,39.0096368 111.91445,39.7567341 C112.091262,40.5038313 112.21503,41.3362146 112.285755,42.2539089 L107.724008,43.1539508 C107.700433,42.5656852 107.662124,42.0539018 107.609081,41.6185853 C107.556037,41.1832688 107.464685,40.7420762 107.335022,40.2949944 C107.205359,39.8479125 107.03739,39.4861346 106.831108,39.2096498 C106.624827,38.933165 106.347824,38.7125687 106.000092,38.5478543 C105.652361,38.38314 105.248644,38.3184317 104.788931,38.3537277 C103.999167,38.4007889 103.395066,38.6625632 102.976609,39.1390583 C102.558153,39.6155534 102.348927,40.253812 102.348927,41.0538532 C102.348927,41.9950781 102.534578,42.7686357 102.905885,43.3745493 C103.277191,43.9804628 103.857718,44.6304865 104.647482,45.3246399 L108.466618,48.6424412 C109.103144,49.2189414 109.657149,49.7777854 110.12865,50.3189897 C110.60015,50.860194 111.051016,51.4778636 111.481261,52.172017 C111.911505,52.8661704 112.238604,53.6309042 112.462567,54.4662413 C112.686529,55.3015784 112.798509,56.1839635 112.798509,57.1134231 C112.798509,59.2429445 112.123684,60.9724194 110.774013,62.3018996 C109.424342,63.6313798 107.653294,64.2961099 105.460816,64.2961099 Z M115.928079,63.9431524 L115.928079,34.6829688 L128.198823,34.6829688 L128.198823,38.4419671 L121.267798,38.4419671 L121.267798,46.8423575 L126.748966,46.8423575 L126.748966,50.6013558 L121.267798,50.6013558 L121.267798,60.2547456 L128.287229,60.2547456 L128.287229,63.9431524 L115.928079,63.9431524 Z" id="PENSE" fill="#101357" fill-rule="nonzero"></path>
                        <path d="M44.1955017,98.5510204 L44.1955017,69.3673469 L49.5400127,69.3673469 L49.5400127,94.8722582 L56.5657439,94.8722582 L56.5657439,98.5510204 L44.1955017,98.5510204 Z M67.0242215,99 C64.0128123,99 61.854276,98.1848161 60.5485479,96.5544238 C59.2428197,94.9240315 58.5899654,92.537126 58.5899654,89.3936358 L58.5899654,78.6260628 C58.5899654,77.0777766 58.7370047,75.7347757 59.0310876,74.59702 C59.3251705,73.4592642 59.7986369,72.4740059 60.451501,71.6412156 C61.1043651,70.8084253 61.9777783,70.1838419 63.0717667,69.7674468 C64.1657552,69.3510516 65.4832269,69.1428571 67.0242215,69.1428571 C70.0238673,69.1428571 72.1794628,69.9463118 73.4910726,71.5532452 C74.8026824,73.1601786 75.4584775,75.5177609 75.4584775,78.6260628 L75.4584775,89.3936358 C75.4584775,90.9184632 75.3084975,92.2585317 75.0085329,93.4138816 C74.7085683,94.5692316 74.2321611,95.5720837 73.579297,96.4224682 C72.9264329,97.2728527 72.0530198,97.91503 70.9590313,98.3490193 C69.8650428,98.7830086 68.5534527,99 67.0242215,99 Z M65.6747405,94.7303837 C66.0535441,94.8829178 66.5033665,94.9591837 67.0242215,94.9591837 C67.5450764,94.9591837 67.9889801,94.8829178 68.3559461,94.7303837 C68.7229121,94.5778496 69.0158885,94.3783849 69.2348844,94.1319837 C69.4538802,93.8855824 69.625523,93.562919 69.7498179,93.1639837 C69.8741128,92.7650483 69.9569748,92.366119 69.9984065,91.9671837 C70.0398381,91.5682483 70.0605536,91.0930531 70.0605536,90.5415837 L70.0605536,77.2887837 C70.0605536,76.5847802 70.0250413,75.9981194 69.9540157,75.5287837 C69.88299,75.059448 69.7439001,74.6165191 69.5367419,74.1999837 C69.3295837,73.7834483 69.0188511,73.472518 68.6045347,73.2671837 C68.1902183,73.0618493 67.6634525,72.9591837 67.0242215,72.9591837 C66.3849904,72.9591837 65.8552653,73.0618493 65.43503,73.2671837 C65.0147948,73.472518 64.7040622,73.7834483 64.5028228,74.1999837 C64.3015834,74.6165191 64.1654529,75.059448 64.0944272,75.5287837 C64.0234016,75.9981194 63.9878893,76.5847802 63.9878893,77.2887837 L63.9878893,90.5415837 C63.9878893,91.0930531 64.0086048,91.5682483 64.0500364,91.9671837 C64.0914681,92.366119 64.1743301,92.7650483 64.298625,93.1639837 C64.4229199,93.562919 64.5916034,93.8855824 64.8046804,94.1319837 C65.0177574,94.3783849 65.3077745,94.5778496 65.6747405,94.7303837 Z M87.1402889,99 C85.8846785,99 84.7757683,98.8416549 83.8135249,98.52496 C82.8512815,98.2082651 82.0562691,97.7684177 81.428464,97.2054045 C80.8006588,96.6423913 80.2902081,95.9445001 79.8970964,95.1117097 C79.5039848,94.2789194 79.2282241,93.384563 79.0698059,92.4286135 C78.9113878,91.4726641 78.8321799,90.396504 78.8321799,89.200101 L78.8321799,79.0307265 C78.8321799,77.7639469 78.9143214,76.6408697 79.0786069,75.6614614 C79.2428924,74.6820531 79.5186531,73.773035 79.9058974,72.93438 C80.2931417,72.095725 80.8006588,71.4066306 81.428464,70.8670764 C82.0562691,70.3275221 82.8483479,69.9052685 83.8047239,69.6003031 C84.7611,69.2953376 85.8729439,69.1428571 87.1402889,69.1428571 C88.5953887,69.1428571 89.8392456,69.33639 90.8718971,69.7234616 C91.9045486,70.1105331 92.7200963,70.6794025 93.3185648,71.4300867 C93.9170332,72.1807709 94.3512097,73.0575335 94.6211073,74.0604007 C94.8910048,75.0632679 95.0259516,76.2332621 95.0259516,77.5704184 L95.0259516,80.0687768 L89.9037912,80.0687768 L89.9037912,77.5880125 C89.9037912,76.1335618 89.8275169,75.1541681 89.6749662,74.6498022 C89.3698646,73.6645291 88.6247238,73.1367122 87.4395216,73.0663356 L87.1578908,73.0663356 C86.7119731,73.0663356 86.321801,73.1191172 85.9873627,73.2246822 C85.6529245,73.3302472 85.3800973,73.4973892 85.1688732,73.7261133 C84.957649,73.9548374 84.7874988,74.1982197 84.6584173,74.4562674 C84.5293359,74.7143151 84.4325263,75.0515314 84.3679856,75.4679266 C84.3034448,75.8843217 84.2623741,76.2684552 84.2447721,76.6203384 C84.2271701,76.9722216 84.2183692,77.4179337 84.2183692,77.957488 L84.2183692,90.3085277 C84.2183692,92.021026 84.4325238,93.2408696 84.8608395,93.968095 C85.2891551,94.6953203 86.0548313,95.0589275 87.1578908,95.0589275 C87.5334004,95.0589275 87.8649,95.0149428 88.1523996,94.926972 C88.4398991,94.8390012 88.6804564,94.7275731 88.8740785,94.5926846 C89.0677007,94.457796 89.2319837,94.2642631 89.3669325,94.0120801 C89.5018812,93.7598972 89.6045581,93.5253119 89.6749662,93.3083172 C89.7453742,93.0913225 89.7981795,92.789294 89.8333835,92.4022224 C89.8685875,92.0151509 89.8891229,91.6867314 89.8949902,91.4169543 C89.9008576,91.1471771 89.9037912,90.7777053 89.9037912,90.3085277 L89.9037912,87.7046048 L95.0259516,87.7046048 L95.0259516,90.0973988 C95.0259516,91.1882368 94.9496773,92.1676304 94.7971265,93.0356091 C94.6445757,93.9035877 94.3834831,94.7187716 94.0138408,95.4811853 C93.6441985,96.243599 93.1660177,96.8769793 92.5792839,97.3813452 C91.9925501,97.8857112 91.2415421,98.2815739 90.3262374,98.5689452 C89.4109327,98.8563165 88.3489605,99 87.1402889,99 Z M104.022491,88.2244898 L107.846021,88.2244898 L105.934256,76.3265306 L104.022491,88.2244898 Z M97.2750865,98.5510204 L103.258969,69.3673469 L108.852213,69.3673469 L114.818339,98.5510204 L109.828811,98.5510204 L108.639137,91.7743532 L103.54307,91.7743532 L102.33564,98.5510204 L97.2750865,98.5510204 Z M117.517301,98.5510204 L117.517301,69.3673469 L122.861812,69.3673469 L122.861812,94.8722582 L129.887543,94.8722582 L129.887543,98.5510204 L117.517301,98.5510204 Z" id="LOCAL" fill="#101357" fill-rule="nonzero"></path>
                        <path d="M44.1955017,29.8778593 L44.1955017,26.1365089 C45.7632415,26.1482743 46.8064212,25.9129716 47.3250719,25.4305938 C47.8437227,24.948216 48.1030442,23.9540621 48.1030442,22.4481022 L48.1030442,0 L53.4427628,0 L53.4250816,22.5716374 C53.4132941,23.8540563 53.3042612,24.9335075 53.0979796,25.8100232 C52.8916981,26.6865389 52.5380779,27.4395075 52.0371084,28.0689517 C51.5361389,28.6983959 50.8524731,29.1572361 49.9860906,29.4454863 C49.1197081,29.7337364 48.0441133,29.8778593 46.7592739,29.8778593 L44.1955017,29.8778593 Z M57.8453784,29.2601835 L57.8453784,0 L70.1161225,0 L70.1161225,3.75899825 L63.1850971,3.75899825 L63.1850971,12.1593887 L68.6662652,12.1593887 L68.6662652,15.9183869 L63.1850971,15.9183869 L63.1850971,25.5717768 L70.2045285,25.5717768 L70.2045285,29.2601835 L57.8453784,29.2601835 Z" id="JE" fill="#101357" fill-rule="nonzero"></path>
                        <path d="M4.72318339,68.6938776 L4.72318339,39.5102041 L11.1646145,39.5102041 C12.5803208,39.5102041 13.7866024,39.7214228 14.7834955,40.1438665 C15.7803887,40.5663102 16.5560661,41.1706303 17.110551,41.956845 C17.6650359,42.7430597 18.0631973,43.6202039 18.3050472,44.5883041 C18.546897,45.5564042 18.6678201,46.6565016 18.6678201,47.888629 L18.6678201,59.9986214 C18.6678201,61.3246253 18.546897,62.4921952 18.3050472,63.5013663 C18.0631973,64.5105374 17.6709346,65.4170176 17.1282472,66.2208341 C16.5855598,67.0246505 15.8275785,67.6377715 14.8542805,68.0602152 C13.8809824,68.4826589 12.7041943,68.6938776 11.3238807,68.6938776 L4.72318339,68.6938776 Z M6.85986159,67.2346939 L11.3597295,67.2346939 C12.2737697,67.2346939 13.0618246,67.1016839 13.7239178,66.8356599 C14.3860111,66.5696358 14.9104045,66.2238098 15.2971138,65.7981714 C15.6838232,65.372533 15.9884987,64.8227583 16.2111495,64.1488308 C16.4338003,63.4749033 16.5802789,62.8068974 16.6505897,62.1447932 C16.7209005,61.482689 16.7560554,60.7082752 16.7560554,59.8215285 L16.7560554,47.9923866 C16.7560554,47.0819933 16.7091822,46.2839332 16.6154345,45.5981824 C16.5216868,44.9124316 16.3547012,44.268072 16.1144726,43.6650843 C15.8742441,43.0620965 15.5490616,42.5714374 15.1389154,42.1930921 C14.7287691,41.8147468 14.2014461,41.5162133 13.5569306,41.2974824 C12.912415,41.0787515 12.1507262,40.9693878 11.2718414,40.9693878 L6.85986159,40.9693878 L6.85986159,67.2346939 Z M28.4515571,37.1530612 L30.7824788,29.9693878 L32.7249135,29.9693878 L29.4580915,37.1530612 L28.4515571,37.1530612 Z M23.9532872,68.6938776 L23.9532872,39.5102041 L33.9869928,39.5102041 L33.9869928,41.0767583 L25.9110834,41.0767583 L25.9110834,52.7819108 L32.536126,52.7819108 L32.536126,54.3132616 L25.9110834,54.3132616 L25.9110834,67.144925 L34.0743945,67.144925 L34.0743945,68.6938776 L23.9532872,68.6938776 Z" id="DÉ" fill="#FEA49F" fill-rule="nonzero" transform="translate(19.398789, 49.331633) rotate(-90.000000) translate(-19.398789, -49.331633) "></path>
                        <path d="M12.6942436,92.9794404 C10.7473636,90.494917 9.58636425,87.3628892 9.58636425,83.9591837 C9.58636425,76.188966 15.6369078,69.8345957 23.2751438,69.3673469 L24.2057411,69.3673469 C31.9610337,69.3673469 38.3032509,75.417442 38.7700377,83.0552772 L38.7700377,83.9591837 C38.7700377,88.620433 36.5926654,92.7721699 33.2013502,95.4491469 C30.7227303,97.3924085 27.5995399,98.5510204 24.2057411,98.5510204 L24.178201,98.5510204 C19.5204361,98.5510204 15.3714221,96.3727989 12.6942436,92.9794404 Z M9.55882412,75.9871406 L9.55882412,69.3673469 L16.1211065,69.3673469 C13.3559355,70.9032207 11.0733546,73.2051516 9.55882412,75.9871406 Z M24.0657439,88.8979592 C26.7985024,88.8979592 29.0138408,86.6867941 29.0138408,83.9591837 C29.0138408,81.2315733 26.7985024,79.0204082 24.0657439,79.0204082 C21.3329855,79.0204082 19.1176471,81.2315733 19.1176471,83.9591837 C19.1176471,86.6867941 21.3329855,88.8979592 24.0657439,88.8979592 Z" id="Combined-Shape" fill="#FEA49F"></path>
                        <path d="M9.55882353,83.9591837 C9.55882353,75.9003348 16.0918114,69.3673469 24.1506603,69.3673469 L38.7975779,69.3673469 L38.7975779,83.9316432 C38.7975779,92.0057023 32.2522598,98.5510204 24.1782007,98.5510204 L24.1506603,98.5510204 C16.0918114,98.5510204 9.55882353,92.0180326 9.55882353,83.9591837 Z M24.0657439,88.8979592 C26.7985024,88.8979592 29.0138408,86.6867941 29.0138408,83.9591837 C29.0138408,81.2315733 26.7985024,79.0204082 24.0657439,79.0204082 C21.3329855,79.0204082 19.1176471,81.2315733 19.1176471,83.9591837 C19.1176471,86.6867941 21.3329855,88.8979592 24.0657439,88.8979592 Z" id="Combined-Shape" fill="#FEA49F"></path>
                    </g>
                </g>
            </g>
        </g>
    </g>
</svg>