<?xml version="1.0" encoding="UTF-8"?>
<svg width="143px" height="123px" viewBox="0 0 143 123" version="1.1" xmlns="http://www.w3.org/2000/svg" xmlns:xlink="http://www.w3.org/1999/xlink">
    <!-- Generator: Sketch 55.2 (78181) - https://sketchapp.com -->
    <title>succes</title>
    <desc>Created with Sketch.</desc>
    <g id="Entreprise" stroke="none" stroke-width="1" fill="none" fill-rule="evenodd">
        <g id="Desktop-HD" transform="translate(-478.000000, -224.000000)" fill="#101357">
            <g id="hero" transform="translate(140.000000, 218.000000)">
                <g id="succes" transform="translate(338.000000, 6.000000)">
                    <path d="M130.927349,0 L12.073428,0 C5.40884177,0.00745078488 0.00786053556,5.42184026 0,12.103401 L0,110.896599 C0.00786053556,117.57816 5.40884177,122.992549 12.073428,123 L130.927349,123 C137.591671,122.992216 142.992236,117.577896 143,110.896599 L143,12.103401 C142.992236,5.42210393 137.591671,0.0077836132 130.927349,0 Z M12.073428,7.94429332 L130.927349,7.94429332 C133.217438,7.94692007 135.07327,9.80747816 135.07589,12.103401 L135.07589,28.5373951 L7.9241103,28.5373951 L7.9241103,12.103401 C7.92681833,9.80721084 9.78307104,7.94657847 12.073428,7.94429332 Z M130.927349,115.055707 L12.073428,115.055707 C9.78307466,115.053413 7.92682705,113.192786 7.9241103,110.896599 L7.9241103,36.4816885 L135.075969,36.4816885 L135.075969,110.896599 C135.07334,113.192549 133.217466,115.053115 130.927349,115.055707 Z" id="Shape" fill-rule="nonzero"></path>
                    <circle id="Oval" cx="18.5" cy="18.5" r="3.5"></circle>
                    <circle id="Oval" cx="31.5" cy="18.5" r="3.5"></circle>
                    <circle id="Oval" cx="43.5" cy="18.5" r="3.5"></circle>
                    <path d="M91.1746933,59.1661899 L63.3298828,86.7887486 L50.819923,74.3790758 C49.2597743,72.8313331 46.7302701,72.8313296 45.1701171,74.379068 C43.6099641,75.9268064 43.6099605,78.4361897 45.1701091,79.9839326 L63.3298828,98 L96.8244912,64.7710308 C97.8368887,63.7704446 98.2334341,62.3095934 97.8644261,60.9399689 C97.4954181,59.5703445 96.4170641,58.5005682 95.0364576,58.1344954 C93.6558512,57.7684227 92.1832865,58.1618138 91.1746773,59.1661582 L91.1746933,59.1661899 Z" id="Path"></path>
                </g>
            </g>
        </g>
    </g>
</svg>