<?xml version="1.0" encoding="UTF-8"?>
<svg width="347px" height="347px" viewBox="0 0 347 347" version="1.1" xmlns="http://www.w3.org/2000/svg" xmlns:xlink="http://www.w3.org/1999/xlink">
    <!-- Generator: Sketch 55.2 (78181) - https://sketchapp.com -->
    <title>JEMESOUVIENS-LABELLEPROVINCE-JEMESOUVIENS-LABELLEPROVINCE-JEMESOUVIENS-LABELLEPROVINCE-</title>
    <desc>Created with Sketch.</desc>
    <g id="Home" stroke="none" stroke-width="1" fill="none" fill-rule="evenodd">
        <g id="Desktop-HD" transform="translate(-245.000000, -1757.000000)" fill="#101357" fill-rule="nonzero">
            <g id="entreprise" transform="translate(140.000000, 1606.000000)">
                <g id="rotatingPin" transform="translate(0.000000, 43.000000)">
                    <g id="txt" transform="translate(84.000000, 84.000000)">
                        <path d="M212.642939,370.076843 L212.399743,368.114118 C213.022458,368.036959 213.502583,367.939452 213.840133,367.821594 C214.177683,367.703736 214.442647,367.51684 214.635031,367.260901 C214.827416,367.004962 214.936614,366.691305 214.962628,366.319921 C214.988643,365.948537 214.961605,365.439672 214.881516,364.793309 L213.006267,349.659046 L215.737529,349.320622 L217.618638,364.50218 C217.727051,365.377134 217.752365,366.114309 217.69458,366.713727 C217.636795,367.313145 217.474167,367.84151 217.206692,368.298837 C216.939217,368.756164 216.539349,369.113841 216.007076,369.371877 C215.474803,369.629913 214.786964,369.811182 213.94354,369.915689 L212.642939,370.076843 Z M221.256707,368.463469 L217.849705,349.005984 L225.383906,347.686747 L225.735291,349.69352 L220.911994,350.538079 L222.038073,356.969141 L225.957735,356.282809 L226.296791,358.219169 L222.377129,358.905501 L223.6265,366.040695 L228.508475,365.185862 L228.849586,367.133957 L221.256707,368.463469 Z M236.381346,365.397048 L231.247886,346.318648 L233.834452,345.57055 L241.640006,359.994177 L240.564104,343.624173 L243.15067,342.876075 L248.993719,361.749246 L246.853507,362.368247 L242.658748,348.636623 L243.431456,363.357986 L241.943608,363.788308 L234.761708,350.920637 L238.544448,364.771427 L236.381346,365.397048 Z M251.870348,360.794735 L244.95911,342.289704 L252.124508,339.613579 L252.837308,341.52212 L248.250114,343.23534 L250.534407,349.351598 L254.2622,347.959347 L254.949989,349.800921 L251.222196,351.193173 L253.756595,357.979095 L258.399594,356.245032 L259.091552,358.097768 L251.870348,360.794735 Z M270.517125,353.162628 C269.024082,353.888257 267.662523,353.980385 266.432407,353.439015 C265.20229,352.897646 264.15196,351.849445 263.281384,350.294381 L265.197152,348.621495 C266.590313,351.088287 268.047681,351.951911 269.569299,351.212395 C270.205092,350.903395 270.603145,350.491372 270.76347,349.976313 C270.923795,349.461254 270.837307,348.860833 270.504004,348.175034 C270.319993,347.796415 270.10696,347.471648 269.864899,347.200722 C269.622839,346.929796 269.330576,346.700936 268.988103,346.514136 C268.64563,346.327335 268.337313,346.183549 268.063142,346.082774 C267.788971,345.981998 267.407631,345.85604 266.919111,345.704894 L262.653848,344.505928 C261.789909,344.254643 261.073745,343.894017 260.505334,343.424039 C259.936924,342.954061 259.44094,342.283314 259.017367,341.411777 C258.392424,340.125902 258.278751,338.942603 258.676346,337.861842 C259.073941,336.781081 259.915763,335.919362 261.201837,335.27666 C262.613026,334.564319 263.855361,334.413124 264.928878,334.82307 C266.002395,335.233017 266.994222,336.19264 267.904389,337.70197 L266.096076,339.296138 C265.880019,338.924264 265.674079,338.600464 265.478253,338.32473 C265.282427,338.048996 265.053589,337.787104 264.791733,337.539045 C264.529877,337.290986 264.270797,337.112232 264.014485,337.002777 C263.758174,336.893321 263.467384,336.849196 263.142107,336.870401 C262.81683,336.891605 262.480811,336.999719 262.134039,337.194746 C260.871868,337.922973 260.534164,338.890719 261.120917,340.098012 C261.374366,340.619506 261.675445,341.01187 262.024162,341.275116 C262.372879,341.538361 262.851712,341.760441 263.460676,341.941361 L267.74737,343.129912 C268.866285,343.451561 269.85054,343.900459 270.700166,344.476621 C271.549791,345.052782 272.221099,345.848057 272.71411,346.862469 C273.345997,348.162631 273.453912,349.384053 273.037858,350.526772 C272.621804,351.66949 271.781568,352.5481 270.517125,353.162628 Z M281.04447,347.522588 C280.191712,348.015368 279.387514,348.310379 278.631853,348.407629 C277.876192,348.504879 277.176502,348.409255 276.532763,348.120755 C275.889024,347.832254 275.293885,347.405599 274.747328,346.840776 C274.20077,346.275952 273.673161,345.553418 273.164485,344.673151 L269.420963,338.19497 C268.391688,336.413805 267.974556,334.85457 268.169554,333.517219 C268.364553,332.179867 269.294166,331.030351 270.95842,330.068634 C272.615798,329.110892 274.076204,328.883884 275.339683,329.387604 C276.603161,329.891324 277.745547,331.026873 278.766874,332.794284 L282.516357,339.282781 C283.545632,341.063945 283.970254,342.644079 283.790235,344.023228 C283.610217,345.402378 282.694971,346.568819 281.04447,347.522588 Z M278.674684,346.112437 C279.067607,346.078024 279.497884,345.925703 279.965525,345.655469 C280.433167,345.385234 280.778271,345.08949 281.000846,344.768226 C281.223422,344.446963 281.328353,344.092778 281.315642,343.705661 C281.302932,343.318543 281.223474,342.931016 281.077266,342.543067 C280.931058,342.155117 280.706945,341.69982 280.404918,341.177162 L276.077216,333.688054 C275.779163,333.172273 275.501562,332.759351 275.244406,332.449276 C274.987249,332.139201 274.696133,331.88545 274.371051,331.688015 C274.045968,331.490581 273.691671,331.413235 273.308147,331.455976 C272.924623,331.498718 272.499046,331.655203 272.031404,331.925438 C271.563763,332.195672 271.215679,332.486259 270.987142,332.797206 C270.758606,333.108154 270.648707,333.453743 270.657444,333.833983 C270.66618,334.214224 270.740671,334.593155 270.880917,334.970789 C271.021164,335.348422 271.24031,335.795123 271.538363,336.310904 L275.866065,343.800012 C276.168092,344.32267 276.45066,344.744188 276.713778,345.064579 C276.976896,345.38497 277.272978,345.647317 277.602035,345.851629 C277.931091,346.055941 278.288637,346.142876 278.674684,346.112437 Z M293.853288,338.971188 C293.463233,339.498132 292.920856,339.999409 292.226141,340.475034 C291.531426,340.950659 290.86514,341.274467 290.227265,341.446466 C289.589389,341.618465 289.003322,341.658741 288.469046,341.567295 C287.93477,341.475848 287.403828,341.252179 286.876204,340.896279 C286.34858,340.54038 285.861395,340.11349 285.414635,339.615595 C284.967875,339.1177 284.495471,338.50502 283.997411,337.777536 L276.600578,326.973461 L278.763359,325.492748 L286.234228,336.404962 C286.552807,336.87029 286.841863,337.264376 287.101404,337.587231 C287.360945,337.910087 287.654374,338.212141 287.981698,338.493403 C288.309021,338.774665 288.62148,338.967433 288.919082,339.071713 C289.216684,339.175993 289.545827,339.203326 289.906522,339.153713 C290.267216,339.1041 290.634345,338.951416 291.007918,338.695655 C291.381491,338.439894 291.654998,338.153978 291.828448,337.837898 C292.001897,337.521818 292.092715,337.204559 292.100903,336.886112 C292.109092,336.567664 292.042402,336.206635 291.900831,335.803013 C291.75926,335.399391 291.584922,335.01821 291.377812,334.659458 C291.170702,334.300706 290.907862,333.888673 290.589283,333.423345 L283.118414,322.511131 L285.281195,321.030418 L292.678028,331.834493 C293.176088,332.561978 293.5764,333.224015 293.878974,333.820624 C294.181548,334.417233 294.403303,335.025846 294.544246,335.64648 C294.68519,336.267114 294.701657,336.84301 294.593649,337.374185 C294.485641,337.905361 294.238857,338.43769 293.853288,338.971188 Z M301.455846,333.451193 L285.681772,320.770017 L287.692313,319.163684 L299.211267,328.580404 L292.45804,315.35608 L294.422041,313.786931 L303.336074,331.948974 L301.455846,333.451193 Z M308.456443,327.744822 L295.328886,312.984449 L297.349757,311.18713 L310.477315,325.947503 L308.456443,327.744822 Z M312.818068,323.770714 L299.027851,309.627472 L304.504305,304.287714 L305.926577,305.746395 L302.420623,309.164839 L306.978547,313.839445 L309.827668,311.06144 L311.200036,312.46894 L308.350915,315.246945 L313.407882,320.433369 L316.956488,316.973338 L318.337174,318.389369 L312.818068,323.770714 Z M319.859784,316.762363 L305.172281,303.553326 L306.423076,302.162532 L319.928743,306.761648 L310.175462,297.990147 L311.713064,296.280443 L326.400567,309.48948 L325.221473,310.800548 L311.376564,306.008502 L321.413319,315.034942 L319.859784,316.762363 Z M331.41187,303.587451 C330.391083,304.896538 329.2093,305.578975 327.866485,305.634782 C326.52367,305.690588 325.119016,305.212188 323.652482,304.199566 L324.635537,301.853865 C326.972821,303.454822 328.661599,303.588227 329.701922,302.254086 C330.136611,301.696628 330.312486,301.151396 330.229551,300.618375 C330.146617,300.085353 329.804504,299.584411 329.2032,299.115533 C328.871231,298.856674 328.536926,298.658943 328.200277,298.522335 C327.863628,298.385727 327.500439,298.308998 327.110697,298.292144 C326.720956,298.27529 326.380826,298.282009 326.090295,298.3123 C325.799765,298.342591 325.401929,298.397479 324.896777,298.476965 L320.539456,299.279296 C319.653156,299.434241 318.851362,299.425933 318.134051,299.25437 C317.416739,299.082808 316.676016,298.699099 315.91186,298.103234 C314.784416,297.224088 314.161156,296.21183 314.04206,295.066429 C313.922963,293.921029 314.299161,292.776609 315.170664,291.633133 C316.123818,290.372029 317.172548,289.689079 318.316886,289.584263 C319.461223,289.479446 320.774339,289.904093 322.256272,290.858218 L321.335014,293.085918 C320.977244,292.847229 320.649735,292.647242 320.352476,292.485953 C320.055217,292.324664 319.734418,292.190342 319.390069,292.082983 C319.045721,291.975624 318.734392,291.929262 318.456071,291.943894 C318.177751,291.958527 317.897254,292.046997 317.614571,292.209309 C317.331888,292.371621 317.077842,292.616688 316.852426,292.94452 C316.040054,294.154248 316.163138,295.171807 317.221682,295.997227 C317.678923,296.35377 318.122047,296.573405 318.551065,296.656138 C318.980084,296.738872 319.507785,296.727336 320.134182,296.621528 L324.506156,295.800406 C325.652358,295.596323 326.733717,295.565793 327.750264,295.708817 C328.766812,295.851841 329.719786,296.27012 330.609213,296.963669 C331.749184,297.852583 332.384067,298.901602 332.513882,300.110757 C332.643697,301.319912 332.276363,302.478798 331.41187,303.587451 Z M333.034042,290.213705 L331.373485,289.139468 L334.337343,284.557932 L335.9979,285.632169 L333.034042,290.213705 Z M345.570447,281.93689 L328.153883,272.616769 L329.452404,270.190215 L345.125211,278.577199 L347.503022,274.13377 L349.24678,275.066906 L345.570447,281.93689 Z M344.900044,267.915494 L346.271062,264.913561 L337.465939,262.712754 L344.900044,267.915494 Z M349.594748,274.3557 L333.378632,262.312988 L334.482375,259.89627 L354.202753,264.266172 L353.113858,266.650379 L348.207702,265.405113 L346.539713,269.057284 L350.678693,271.982331 L349.594748,274.3557 Z M346.905796,250.925251 L347.421489,249.389193 C347.782981,248.312441 347.794808,247.484866 347.456969,246.906443 C347.11913,246.328021 346.385492,245.849222 345.256032,245.470035 C344.887075,245.346167 344.556336,245.264454 344.263806,245.224893 C343.971275,245.185332 343.713224,245.174102 343.489643,245.191204 C343.266063,245.208305 343.059952,245.279445 342.871304,245.404625 C342.682655,245.529805 342.519731,245.665714 342.382527,245.812355 C342.245323,245.958995 342.106089,246.174073 341.964823,246.457594 C341.823557,246.741115 341.701144,247.018393 341.59758,247.289436 C341.494017,247.56048 341.370191,247.910593 341.2261,248.339788 L341.021339,248.949694 L346.905796,250.925251 Z M355.941431,253.958737 L356.532961,252.196788 C356.912148,251.067328 356.905837,250.206434 356.514026,249.614081 C356.122215,249.021727 355.29759,248.514477 354.040124,248.092315 C352.842897,247.690376 351.865966,247.636785 351.109304,247.931541 C350.352641,248.226297 349.787252,248.930865 349.41312,250.045265 L348.893636,251.592618 L355.941431,253.958737 Z M356.940406,257.197224 L338.214054,250.910325 L339.651167,246.629694 C340.222477,244.927974 341.026142,243.79442 342.062188,243.228999 C343.098234,242.663578 344.418154,242.650091 346.021987,243.188537 C348.408913,243.989887 349.425779,245.328291 349.072615,247.203788 C349.71529,246.187923 350.507831,245.555426 351.450263,245.306281 C352.392695,245.057136 353.53404,245.157546 354.874333,245.607515 C356.560993,246.173769 357.742198,247.010189 358.417983,248.1168 C359.093769,249.223412 359.158645,250.589909 358.612615,252.216331 L356.940406,257.197224 Z M360.910154,245.049764 L341.808928,240.015427 L343.758292,232.619175 L345.728321,233.138398 L344.480365,237.873382 L350.793677,239.537324 L351.807832,235.68943 L353.708738,236.190434 L352.694583,240.038329 L359.699134,241.884455 L360.962273,237.091867 L362.874699,237.595908 L360.910154,245.049764 Z M363.354343,235.43178 L343.997422,231.493382 L344.546137,228.796489 L361.965031,232.340572 L362.969822,227.402105 L364.907849,227.79642 L363.354343,235.43178 Z M365.199511,225.926436 L345.651928,223.081547 L346.048291,220.358091 L363.638757,222.918147 L364.364564,217.931038 L366.32168,218.21587 L365.199511,225.926436 Z M366.508124,216.330065 L346.831022,214.59426 L347.503149,206.97502 L349.532573,207.154044 L349.102286,212.031782 L355.605936,212.605498 L355.955609,208.641595 L357.913825,208.814338 L357.564152,212.778241 L364.77988,213.414773 L365.215402,208.477695 L367.185486,208.651485 L366.508124,216.330065 Z M356.289497,198.154965 L356.282613,196.904007 C356.27597,195.696728 356.056956,194.867916 355.625562,194.417546 C355.194169,193.967176 354.370874,193.745338 353.155652,193.752025 C352.655267,193.754778 352.244307,193.768954 351.922762,193.794552 C351.601217,193.82015 351.297711,193.875433 351.012235,193.960404 C350.726759,194.045375 350.506956,194.155797 350.352817,194.291674 C350.198679,194.427551 350.06668,194.616918 349.956816,194.85978 C349.846952,195.102642 349.77305,195.385016 349.735107,195.706911 C349.697164,196.028806 349.679504,196.428026 349.682126,196.904584 L349.689206,198.191283 L356.289497,198.154965 Z M367.479862,200.84558 L347.726645,200.954272 L347.699419,196.057667 C347.690261,194.342059 348.146073,193.096511 349.06715,192.320984 C349.988226,191.545458 351.34229,191.152784 353.129381,191.14295 C354.733792,191.134122 355.987021,191.542235 356.889105,192.367301 C357.791189,193.192367 358.246595,194.399144 358.255336,195.98767 L358.267201,198.144082 L367.464718,198.093473 L367.479862,200.84558 Z M355.886233,187.253979 L355.808583,186.220368 C355.718735,185.024383 355.418993,184.188672 354.909349,183.713208 C354.399704,183.237744 353.527102,183.046426 352.291515,183.139249 C351.09553,183.229097 350.272489,183.511957 349.822366,183.987837 C349.372244,184.463717 349.193002,185.311518 349.284635,186.531264 L349.375672,187.743083 L355.886233,187.253979 Z M367.307678,189.15585 L347.609669,190.635657 L347.312458,186.679423 C347.162513,184.683475 347.46048,183.189554 348.20637,182.197617 C348.952259,181.205679 350.247914,180.640399 352.093374,180.501759 C354.627912,180.311353 356.22148,181.00805 356.874128,182.591872 L366.547246,179.033592 L366.747171,181.694843 L357.698647,184.979195 L357.85841,187.10582 L367.101504,186.411435 L367.307678,189.15585 Z M365.707942,171.530094 C365.854499,172.50403 365.834773,173.360403 365.648763,174.099241 C365.462752,174.83808 365.117727,175.45425 364.613675,175.947773 C364.109624,176.441295 363.494783,176.839034 362.769134,177.141002 C362.043485,177.442969 361.177998,177.669592 360.172645,177.820877 L352.773913,178.934234 C350.739645,179.240349 349.135913,179.057987 347.962669,178.387142 C346.789426,177.716297 346.059803,176.430521 345.77378,174.529776 C345.488939,172.636885 345.812075,171.194699 346.743198,170.203173 C347.674321,169.211648 349.149141,168.564019 351.167701,168.260268 L358.578214,167.145138 C360.612482,166.839022 362.238404,167.022061 363.456028,167.69426 C364.673652,168.366459 365.424283,169.645057 365.707942,171.530094 Z M363.528429,173.219512 C363.640183,172.841248 363.655875,172.385076 363.575505,171.850982 C363.495135,171.316888 363.346184,170.887499 363.128648,170.562802 C362.911113,170.238105 362.619889,170.010847 362.254969,169.88102 C361.89005,169.751193 361.500324,169.683333 361.08578,169.67744 C360.671236,169.671547 360.165508,169.713513 359.56858,169.803338 L351.015269,171.090436 C350.426195,171.179079 349.940331,171.286328 349.557661,171.412185 C349.174991,171.538043 348.832313,171.716114 348.529616,171.946403 C348.226918,172.176693 348.025291,172.478116 347.924727,172.85068 C347.824162,173.223245 347.814066,173.676567 347.894436,174.210661 C347.974806,174.744754 348.117866,175.17503 348.32362,175.5015 C348.529375,175.82797 348.81078,176.056706 349.167846,176.187714 C349.524911,176.318723 349.904819,176.38806 350.307582,176.395726 C350.710344,176.403392 351.206254,176.362904 351.795328,176.27426 L360.348639,174.987163 C360.945567,174.897337 361.44125,174.788611 361.835701,174.660981 C362.230152,174.533351 362.582648,174.353802 362.8932,174.122331 C363.203751,173.890859 363.415492,173.589923 363.528429,173.219512 Z M363.415826,160.211846 L345.12906,168.885243 L344.559141,166.375706 L358.053703,160.110108 L343.208223,160.427176 L342.651497,157.97573 L362.882847,157.864965 L363.415826,160.211846 Z M361.327552,151.419121 L342.3252,156.814677 L341.586484,154.213028 L360.588836,148.817473 L361.327552,151.419121 Z M359.63284,145.764942 L340.956842,152.199886 L340.347502,150.431411 L350.921335,140.852842 L338.519481,145.125986 L337.770419,142.952001 L356.446417,136.517057 L357.020827,138.184154 L346.113709,147.96577 L358.876016,143.568429 L359.63284,145.764942 Z M353.583096,129.019326 C353.906024,129.770998 354.087591,130.475329 354.127801,131.132343 C354.168011,131.789356 354.090568,132.373719 353.895468,132.88545 C353.700369,133.397181 353.391308,133.880064 352.968276,134.334113 C352.545245,134.788162 352.064285,135.182809 351.525384,135.518066 C350.986482,135.853322 350.359449,136.174572 349.644267,136.481824 L343.229551,139.237678 C342.463284,139.566877 341.761357,139.814406 341.123749,139.980273 C340.486141,140.146139 339.859679,140.227256 339.244344,140.223853 C338.62901,140.219997 338.075121,140.107849 337.582662,139.887181 C337.090203,139.666513 336.627619,139.314153 336.194896,138.830091 C335.762173,138.346029 335.384354,137.728172 335.061425,136.9765 C334.359133,135.341798 334.297445,133.980843 334.876359,132.893596 C335.455273,131.806349 336.602202,130.894349 338.31718,130.15757 L339.762133,129.536797 L340.792051,131.934106 L339.511297,132.484336 C339.233982,132.603475 339.01766,132.698571 338.862325,132.769627 C338.706991,132.840684 338.514913,132.931847 338.286087,133.043121 C338.057261,133.154395 337.883441,133.252844 337.764622,133.338469 C337.645803,133.424094 337.509011,133.528246 337.354244,133.650927 C337.199476,133.773608 337.08851,133.892598 337.021342,134.007902 C336.954175,134.123205 336.887548,134.259886 336.821461,134.417949 C336.755374,134.576012 336.724749,134.736127 336.729585,134.898299 C336.734421,135.060471 336.759352,135.244263 336.804379,135.449682 C336.849406,135.6551 336.922082,135.87457 337.02241,136.108099 C337.172901,136.458393 337.342891,136.748435 337.532386,136.978235 C337.721881,137.208035 337.934781,137.371586 338.171091,137.468892 C338.407401,137.566199 338.646803,137.625434 338.889304,137.646601 C339.131805,137.667767 339.419102,137.63727 339.751204,137.555107 C340.083307,137.472944 340.397403,137.379065 340.693504,137.273468 C340.989604,137.167871 341.349284,137.024153 341.772555,136.84231 L348.953534,133.757259 C350.318219,133.170971 351.193239,132.591902 351.578621,132.020034 C351.964003,131.448167 351.96858,130.724377 351.592353,129.848644 C351.448132,129.512946 351.28702,129.23854 351.109012,129.025416 C350.931004,128.812293 350.724375,128.663338 350.489119,128.578546 C350.253863,128.493754 350.024637,128.443113 349.801434,128.426623 C349.578232,128.410133 349.302151,128.446617 348.973184,128.536078 C348.644217,128.625538 348.346027,128.721228 348.078604,128.82315 C347.811181,128.925071 347.465839,129.066952 347.042568,129.248795 L345.707081,129.822539 L344.677163,127.425231 L346.023596,126.846784 C346.716886,126.548937 347.355999,126.326232 347.940955,126.178663 C348.525911,126.031094 349.102843,125.96045 349.67177,125.966728 C350.240696,125.973006 350.755731,126.080234 351.216892,126.288415 C351.678052,126.496595 352.112459,126.828643 352.520127,127.284568 C352.927794,127.740493 353.282113,128.31874 353.583096,129.019326 Z M350.286524,122.144721 L332.684196,131.109064 L329.213082,124.293204 L331.028521,123.368655 L333.250683,127.732079 L339.068581,124.769196 L337.262737,121.223251 L339.014476,120.331142 L340.820321,123.877087 L347.275215,120.589801 L345.02602,116.173294 L346.788376,115.275779 L350.286524,122.144721 Z M337.685693,112.169226 L336.00459,113.211015 L333.130257,108.572789 L334.811361,107.531 L337.685693,112.169226 Z M336.757665,98.1244058 L335.160428,99.2907101 C334.790393,98.7839535 334.471864,98.4117076 334.20483,98.1739612 C333.937796,97.9362148 333.645695,97.7954564 333.328519,97.7516817 C333.011344,97.7079071 332.684146,97.7648845 332.346917,97.9226157 C332.009687,98.0803468 331.578079,98.3512514 331.052078,98.7353374 L318.73603,107.728527 L317.113041,105.505865 L329.467576,96.4845719 C330.179602,95.9646505 330.811589,95.5843092 331.363558,95.3435365 C331.915527,95.1027639 332.456342,94.9881503 332.986019,94.9996925 C333.515696,95.0112347 334.022613,95.1869115 334.506784,95.5267282 C334.990956,95.866545 335.483627,96.3796289 335.984813,97.0659954 L336.757665,98.1244058 Z M331.174444,91.3965953 L315.819979,103.824057 L311.007898,97.8786004 L312.591501,96.596878 L315.672132,100.403081 L320.74707,96.2955729 L318.243589,93.2024539 L319.771627,91.9657042 L322.275108,95.0588231 L327.905696,90.5015876 L324.787587,86.6490802 L326.324886,85.404835 L331.174444,91.3965953 Z M321.144307,79.651694 L306.941708,93.3857391 L305.034107,91.4854668 L313.870121,77.6690806 L300.070968,86.5413954 L298.163367,84.6411231 L311.842641,70.3857643 L313.421054,71.9581135 L303.441004,82.2805217 L315.944827,74.4721906 L317.04212,75.5652676 L309.265096,88.0822381 L319.549012,78.0625282 L321.144307,79.651694 Z M309.619735,68.3337609 L296.76384,83.3313385 L290.956575,78.3533622 L292.282484,76.8065674 L296.000219,79.9934027 L300.249333,75.0364229 L297.228108,72.4466346 L298.507495,70.9541133 L301.52872,73.5439016 L306.243065,68.0441868 L302.480102,64.8185822 L303.767242,63.3170153 L309.619735,68.3337609 Z M293.923429,55.6885924 C295.27947,56.6461252 296.017203,57.7942021 296.136651,59.1328577 C296.256099,60.4715133 295.844876,61.8972813 294.902967,63.4102045 L292.51327,62.5395379 C294.001542,60.1289348 294.05468,58.4357293 292.672687,57.4598706 C292.095235,57.0521174 291.542273,56.902307 291.013786,57.0104349 C290.4853,57.1185627 290.001152,57.4840562 289.561328,58.1069264 C289.318509,58.4508026 289.13686,58.794111 289.016377,59.1368619 C288.895894,59.4796127 288.836481,59.8460336 288.838136,60.2361355 C288.839791,60.6262374 288.862638,60.9656663 288.906678,61.2544326 C288.950718,61.5431989 289.024418,61.9379823 289.127779,62.4387948 L290.135922,66.7531467 C290.332739,67.6310979 290.362478,68.4323831 290.225138,69.1570262 C290.087799,69.8816693 289.739663,70.6397615 289.180721,71.4313257 C288.356051,72.5992072 287.374501,73.2697884 286.236041,73.4430892 C285.09758,73.61639 283.936601,73.2949081 282.753068,72.4786338 C281.448166,71.5863807 280.716232,70.5712312 280.557245,69.4331547 C280.398258,68.2950782 280.760132,66.9632955 281.642878,65.4377665 L283.911775,66.2523034 C283.690328,66.6209939 283.506104,66.9576221 283.359099,67.2621983 C283.212093,67.5667745 283.093142,67.8935845 283.00224,68.2426383 C282.911338,68.591692 282.879797,68.9048705 282.907617,69.182183 C282.935436,69.4594955 283.037115,69.7354799 283.212654,70.0101443 C283.388194,70.2848087 283.645038,70.5269424 283.983194,70.7365525 C285.230099,71.4906193 286.240673,71.3193998 287.014946,70.2228888 C287.349396,69.7492479 287.547761,69.2962039 287.610048,68.8637432 C287.672336,68.4312825 287.635778,67.9047237 287.500373,67.2840509 L286.472766,62.9559546 C286.214535,61.8207249 286.132739,60.7420321 286.227376,59.7198437 C286.322013,58.6976554 286.694612,57.7259114 287.345184,56.8045826 C288.179017,55.6237246 289.196735,54.9397899 290.39837,54.7527579 C291.600004,54.5657259 292.775012,54.8776676 293.923429,55.6885924 Z M283.913857,49.1954517 C284.756843,49.7047676 285.403164,50.2669372 285.852839,50.8819774 C286.302513,51.4970175 286.556236,52.1560578 286.614015,52.8591181 C286.671794,53.5621785 286.585109,54.2893038 286.353959,55.0405161 C286.122808,55.7917283 285.744366,56.6024122 285.218621,57.4725921 L281.349482,63.8765405 C280.285668,65.6372952 279.121002,66.7547764 277.855447,67.2290175 C276.589892,67.7032587 275.134545,67.4433894 273.489361,66.4494018 C271.850975,65.4595215 270.947709,64.2897231 270.779535,62.9399714 C270.61136,61.5902196 271.055066,60.0417879 272.110664,58.2946298 L275.985964,51.880484 C277.049778,50.1197293 278.229138,48.9856068 279.524082,48.4780825 C280.819026,47.9705582 282.282269,48.2096788 283.913857,49.1954517 Z M283.821627,51.951519 C283.60196,51.6239227 283.26099,51.3204779 282.798707,51.0411756 C282.336424,50.7618733 281.910899,50.6022172 281.52212,50.5622024 C281.133342,50.5221875 280.772469,50.601107 280.439491,50.7989632 C280.106513,50.9968194 279.80537,51.253343 279.536054,51.5685416 C279.266739,51.8837403 278.976004,52.299668 278.663843,52.8163374 L274.190921,60.219628 C273.882867,60.7294991 273.655052,61.1718414 273.507468,61.5466682 C273.359884,61.921495 273.278018,62.2989016 273.261868,62.6788993 C273.245718,63.058897 273.348857,63.4065632 273.571286,63.7219084 C273.793716,64.0372536 274.136067,64.3345729 274.59835,64.6138752 C275.060633,64.8931775 275.483077,65.0579323 275.865694,65.1081445 C276.248312,65.1583567 276.604051,65.087935 276.932921,64.8968771 C277.261792,64.7058192 277.5578,64.4577933 277.820955,64.1527921 C278.08411,63.8477908 278.36971,63.4403608 278.677764,62.9304898 L283.150686,55.5271991 C283.462847,55.0105298 283.695797,54.5596898 283.849542,54.1746655 C284.003287,53.7896413 284.090287,53.403737 284.110544,53.016941 C284.130801,52.630145 284.034497,52.2750079 283.821627,51.951519 Z M270.240396,42.0976444 C270.89014,42.1850851 271.590888,42.4183314 272.342661,42.7973902 C273.094434,43.1764491 273.69951,43.6038489 274.157907,44.0796024 C274.616304,44.555356 274.934326,45.0492778 275.111982,45.5613825 C275.289639,46.0734872 275.349869,46.6464618 275.292675,47.2803234 C275.235481,47.9141849 275.096594,48.5468737 274.87601,49.1784085 C274.655426,49.8099434 274.346669,50.5193172 273.94973,51.3065512 L268.054679,62.9979819 L265.714265,61.8178989 L271.66832,50.0094476 C271.922218,49.5059015 272.127956,49.0625859 272.285541,48.6794875 C272.443125,48.296389 272.566141,47.8936435 272.654592,47.4712387 C272.743042,47.0488339 272.76115,46.6821435 272.708917,46.3711565 C272.656683,46.0601695 272.521832,45.758677 272.304361,45.4666698 C272.086889,45.1746627 271.77603,44.926746 271.371775,44.7229125 C270.96752,44.519079 270.585126,44.4174442 270.224584,44.4180052 C269.864041,44.4185662 269.542331,44.4920755 269.259443,44.6385353 C268.976556,44.7849951 268.692494,45.0175865 268.40725,45.3363164 C268.122006,45.6550464 267.872227,45.9916514 267.657904,46.3461416 C267.443582,46.7006318 267.209476,47.1296436 266.955578,47.6331896 L261.001523,59.441641 L258.661109,58.261558 L264.55616,46.5701274 C264.953099,45.7828934 265.339869,45.1128553 265.716481,44.559993 C266.093094,44.0071307 266.51921,43.5192689 266.994844,43.0963929 C267.470478,42.6735169 267.966977,42.3812562 268.484356,42.2196021 C269.001735,42.057948 269.587076,42.0172958 270.240396,42.0976444 Z M261.728039,38.1005691 L258.24171,58.037448 L255.864145,57.0526797 L258.546924,42.4183497 L250.228437,54.718414 L247.905909,53.7564413 L259.504576,37.1796283 L261.728039,38.1005691 Z M253.36516,34.7348843 L246.793843,53.3633347 L244.243385,52.4636429 L250.814703,33.8351925 L253.36516,34.7348843 Z M247.769342,32.8370888 L242.071371,51.7509595 L234.747665,49.5446281 L235.335332,47.5939213 L240.023873,49.0063858 L241.907159,42.7549979 L238.097007,41.6071557 L238.664055,39.7248947 L242.474207,40.8727369 L244.563692,33.9368905 L239.818113,32.5072427 L240.388597,30.6135741 L247.769342,32.8370888 Z M238.234324,30.0720253 L233.805268,49.3226056 L231.982384,48.9032076 L229.454861,34.8616066 L226.513733,47.6450137 L224.272863,47.129448 L228.70192,27.8788677 L230.420307,28.2742238 L232.943622,42.7060672 L235.970233,29.551117 L238.234324,30.0720253 Z M221.100633,26.3610511 C222.740717,26.6176381 223.911195,27.3192875 224.612102,28.4660204 C225.313009,29.6127533 225.576965,31.0729748 225.403977,32.8467286 L222.87605,33.126544 C223.140467,30.3058981 222.436949,28.7648494 220.765475,28.5033517 C220.067066,28.3940874 219.505035,28.5051303 219.079365,28.8364838 C218.653695,29.1678373 218.381936,29.7101761 218.264077,30.4635163 C218.19901,30.8794229 218.188513,31.2676839 218.232586,31.628311 C218.276658,31.9889381 218.385963,32.3436867 218.560504,32.6925676 C218.735044,33.0414485 218.906098,33.3355142 219.07367,33.5747736 C219.241242,33.814033 219.482427,34.135149 219.797232,34.5381313 L222.61468,37.957483 C223.180549,38.6570033 223.562668,39.361934 223.761049,40.0722964 C223.95943,40.7826588 223.983731,41.6165124 223.833953,42.5738823 C223.612969,43.9863953 223.030773,45.022816 222.087348,45.6831755 C221.143923,46.3435351 219.960821,46.5704529 218.538005,46.3639358 C216.97271,46.1431676 215.866399,45.5580769 215.219038,44.6086461 C214.571677,43.6592154 214.305188,42.3051174 214.419561,40.5463116 L216.814325,40.2697812 C216.779419,40.6984459 216.763651,41.0818625 216.767019,41.4200427 C216.770387,41.7582229 216.80876,42.1038843 216.88214,42.4570373 C216.95552,42.8101903 217.066186,43.1048575 217.21414,43.3410477 C217.362094,43.5772378 217.575651,43.7794725 217.854819,43.9477577 C218.133987,44.1160429 218.47159,44.2191053 218.867638,44.2569479 C220.319653,44.3796001 221.149387,43.7778389 221.356867,42.4516462 C221.446488,41.8787937 221.423286,41.3847701 221.287261,40.9695604 C221.151235,40.5543508 220.884879,40.098659 220.488184,39.6024715 L217.647193,36.1794367 C216.912151,35.2765838 216.360314,34.3461299 215.991665,33.388047 C215.623016,32.4299641 215.525858,31.3937803 215.70019,30.2794645 C215.92363,28.851257 216.532316,27.7868236 217.526267,27.0861326 C218.520218,26.3854415 219.711662,26.1437501 221.100633,26.3610511 Z M208.632666,31.4389538 L208.499975,33.4122318 L203.055629,33.0461311 L203.188321,31.0728531 L208.632666,31.4389538 Z M195.299402,24.4947677 L195.585619,44.2462096 L192.833759,44.2860866 L192.576199,26.5121714 L187.53708,26.5851929 L187.508423,24.6076661 L195.299402,24.4947677 Z M183.347045,31.8720694 L180.056503,32.1243094 L182.389763,40.8952636 L183.347045,31.8720694 Z M186.712539,24.6478078 L184.017095,44.6658978 L181.368031,44.8689647 L175.652993,25.4955891 L178.266419,25.2952541 L179.549876,30.1915579 L183.55317,29.8846811 L184.110991,24.8472322 L186.712539,24.6478078 Z M167.513825,38.3290072 L165.91978,38.6195849 C164.802381,38.8232753 164.072079,39.2127359 163.728853,39.7879783 C163.385627,40.3632208 163.320846,41.2368776 163.534507,42.4089748 C163.604303,42.7918599 163.692544,43.1209172 163.799233,43.3961567 C163.905922,43.6713962 164.020758,43.90276 164.143747,44.090255 C164.266735,44.27775 164.428598,44.4238431 164.62934,44.5285386 C164.830081,44.6332341 165.027788,44.7102234 165.222466,44.7595088 C165.417144,44.8087943 165.672722,44.8267931 165.989209,44.8135059 C166.305695,44.8002187 166.607607,44.7734405 166.894954,44.7331706 C167.182301,44.6929006 167.548668,44.632171 167.994065,44.5509797 L168.626994,44.4356032 L167.513825,38.3290072 Z M165.804544,28.9522761 L163.976081,29.2855859 C162.803984,29.4992471 162.053272,29.9206855 161.723924,30.5499136 C161.394576,31.1791418 161.348841,32.1462088 161.586717,33.4511437 C161.813198,34.6935668 162.238248,35.5748145 162.861879,36.0949134 C163.485511,36.6150122 164.375548,36.7696531 165.532018,36.5588407 L167.137783,36.2661263 L165.804544,28.9522761 Z M168.157399,26.5130495 L171.699884,45.9463246 L167.257658,46.7560965 C165.491698,47.0780127 164.110944,46.9219973 163.115355,46.2880457 C162.119766,45.654094 161.470281,44.5049464 161.166882,42.8405683 C160.715345,40.3635361 161.395927,38.8266078 163.208649,38.2297373 C162.008715,38.157822 161.07204,37.7694773 160.398594,37.0646918 C159.725148,36.3599062 159.26166,35.3120848 159.008116,33.921196 C158.689048,32.1708642 158.850721,30.7325645 159.493138,29.606254 C160.135555,28.4799434 161.300656,27.7629629 162.988476,27.4552907 L168.157399,26.5130495 Z M155.601641,28.9052793 L160.420189,48.062079 L153.002418,49.9278858 L152.50545,47.9521242 L157.254211,46.7576591 L155.66159,40.4259786 L151.802501,41.3966631 L151.322971,39.4902265 L155.182061,38.519542 L153.415066,31.4946118 L148.608535,32.7036081 L148.126099,30.7856173 L155.601641,28.9052793 Z M145.988645,31.4139273 L151.893288,50.2643006 L149.266969,51.0869619 L143.953503,34.1238998 L139.14427,35.6303315 L138.553094,33.7430203 L145.988645,31.4139273 Z M136.775028,34.3916269 L143.734328,52.8786366 L141.158634,53.8482374 L134.896104,37.2121588 L130.179575,38.9876616 L129.482806,37.1367306 L136.775028,34.3916269 Z M127.751224,37.8825304 L135.753526,55.9425567 L128.76044,59.041156 L127.935112,57.1785115 L132.411994,55.1948288 L129.767084,49.2256525 L126.128936,50.8376963 L125.332567,49.0404078 L128.970715,47.428364 L126.036216,40.8056282 L121.50487,42.8134433 L120.703675,41.0052621 L127.751224,37.8825304 Z M116.808651,55.6221882 L115.718311,56.2354595 C114.666042,56.8273179 114.047748,57.421128 113.863413,58.0169076 C113.679077,58.6126871 113.884782,59.4401607 114.480535,60.4993531 C114.725844,60.9354912 114.93773,61.2879014 115.116198,61.5565945 C115.294665,61.8252875 115.490329,62.0637989 115.703196,62.2721357 C115.916063,62.4804724 116.119302,62.619039 116.312919,62.6878394 C116.506536,62.7566398 116.736171,62.7801189 117.001831,62.7582774 C117.26749,62.7364359 117.550237,62.6639737 117.850081,62.5408888 C118.149924,62.4178038 118.507526,62.2394498 118.922895,62.0058214 L120.044387,61.3750281 L116.808651,55.6221882 Z M113.728841,44.5326233 L123.412687,61.7496063 L119.144786,64.1501255 C117.649456,64.9911875 116.339239,65.1973103 115.214096,64.7685002 C114.088954,64.3396901 113.088345,63.346482 112.212238,61.788846 C111.42569,60.3904351 111.174137,59.096658 111.457572,57.907476 C111.741007,56.7182939 112.574995,55.7343371 113.95956,54.955576 L115.839098,53.898413 L111.330094,45.8818202 L113.728841,44.5326233 Z M107.475154,61.2696052 L106.609776,61.840132 C105.608452,62.5002852 105.024003,63.1686255 104.856411,63.845173 C104.68882,64.5217205 104.946027,65.3772217 105.628039,66.4117023 C106.288192,67.4130264 106.93562,67.9946145 107.57034,68.1564838 C108.205061,68.3183532 109.033018,68.0626573 110.054236,67.3893885 L111.068818,66.7204949 L107.475154,61.2696052 Z M103.582339,50.3649041 L114.455138,66.8568296 L111.142828,69.0405704 C109.471744,70.142283 108.021484,70.6084688 106.792005,70.4391417 C105.562525,70.2698146 104.438479,69.4126191 103.419832,67.8675295 C102.020832,65.745518 101.854583,64.0142729 102.921081,62.6737423 L95.1075978,55.9521329 L97.3356987,54.4831901 L104.606071,60.7922659 L106.386563,59.6184232 L101.28461,51.8797513 L103.582339,50.3649041 Z M88.9679872,60.3287718 C89.7476891,59.727029 90.5055453,59.3277552 91.2415784,59.1309386 C91.9776115,58.9341219 92.6838029,58.9359068 93.3601737,59.1362932 C94.0365445,59.3366796 94.6831079,59.6804546 95.2998834,60.1676285 C95.9166588,60.6548023 96.5356142,61.3008064 97.156768,62.10566 L101.728049,68.02885 C102.984915,69.657421 103.605573,71.147386 103.590042,72.4987899 C103.57451,73.8501937 102.805918,75.1130611 101.284242,76.2874301 C99.7688532,77.4569464 98.3515722,77.8760321 97.0323559,77.5447001 C95.7131397,77.213368 94.4299706,76.239719 93.1828102,74.6237239 L88.6042499,68.691102 C87.3473839,67.0625311 86.7165249,65.5528481 86.7116072,64.162008 C86.7067831,62.7711679 87.4588866,61.4934352 88.9679872,60.3287718 Z M91.5041644,61.4114622 C91.1193,61.4977903 90.7130846,61.7059452 90.2855061,62.0359332 C89.8579276,62.3659212 89.5551908,62.7049073 89.3772864,63.0529016 C89.1993821,63.4008959 89.1424542,63.7658846 89.2065009,64.1478787 C89.2705476,64.5298728 89.4008041,64.9034024 89.5972741,65.2684787 C89.7937442,65.633555 90.07638,66.0550278 90.4451901,66.5329096 L95.7298241,73.3804191 C96.0937815,73.852013 96.423798,74.2243781 96.7198835,74.4975255 C97.015969,74.770673 97.3382261,74.983483 97.6866643,75.135962 C98.0351026,75.288441 98.3965369,75.3180133 98.7709782,75.2246797 C99.1454195,75.1313461 99.5464234,74.9196885 99.9740019,74.5897005 C100.40158,74.2597125 100.707957,73.9254423 100.89314,73.5868799 C101.078324,73.2483175 101.141318,72.8911885 101.082124,72.5154823 C101.02293,72.1397762 100.898739,71.7741063 100.709548,71.4184619 C100.520357,71.0628175 100.243787,70.6492045 99.8798299,70.1776106 L94.5951958,63.3301011 C94.2263857,62.8522193 93.8903034,62.4719944 93.5869387,62.1894151 C93.283574,61.9068358 92.9552511,61.6861659 92.6019601,61.527399 C92.2486691,61.3686321 91.8827409,61.3299869 91.5041644,61.4114622 Z M80.1858498,67.837456 L96.6502416,79.6084983 L94.7335283,81.3257026 L82.7016518,72.5738532 L90.1902078,85.3961127 L88.3178628,87.0735669 L78.3933679,69.44336 L80.1858498,67.837456 Z M73.5263305,73.9227342 L87.4659557,87.9187418 L85.5497352,89.8272429 L71.6101099,75.8312354 L73.5263305,73.9227342 Z M69.3952331,78.1554627 L84.0741153,91.3740783 L82.8224129,92.7640569 L69.3197487,88.1561303 L79.0673056,96.9339927 L77.5285886,98.6426925 L62.8497064,85.4240769 L64.0296552,84.1137786 L77.8714355,88.9148557 L67.8405709,79.8818693 L69.3952331,78.1554627 Z M57.6735265,91.5605472 C58.1750849,90.9142254 58.7036161,90.4145212 59.2591361,90.0614196 C59.814656,89.7083179 60.3635271,89.4933328 60.9057658,89.4164578 C61.4480045,89.3395827 62.0201399,89.3763985 62.6221894,89.5269061 C63.2242389,89.6774137 63.8023332,89.9073594 64.3564897,90.2167501 C64.9106462,90.5261408 65.4951892,90.9194357 66.1101361,91.3966465 L71.6258062,95.676914 C72.2846779,96.1882113 72.8409448,96.6827205 73.2946235,97.1604565 C73.7483023,97.6381924 74.1224202,98.147182 74.4169885,98.6874404 C74.7115569,99.2276988 74.8814253,99.7666926 74.926599,100.304438 C74.9717727,100.842183 74.8872423,101.417506 74.6730054,102.030423 C74.4587685,102.64334 74.1008762,103.27295 73.5993179,103.919272 C72.5085503,105.324865 71.3473777,106.037382 70.1157651,106.056845 C68.8841526,106.076307 67.5310578,105.513881 66.0564401,104.369549 L64.8140024,103.405393 L66.4136246,101.344076 L67.5148761,102.198669 C67.7533249,102.38371 67.9412198,102.527006 68.0785664,102.628563 C68.215913,102.73012 68.3886353,102.854102 68.5967386,103.000514 C68.8048418,103.146925 68.9751046,103.251405 69.107532,103.313956 C69.2399595,103.376507 69.3972963,103.445822 69.5795473,103.521903 C69.7617983,103.597983 69.9196249,103.637517 70.053032,103.640506 C70.1864391,103.643494 70.3382926,103.635665 70.5085971,103.617018 C70.6789015,103.59837 70.8338428,103.547696 70.9734256,103.464993 C71.1130083,103.38229 71.2617883,103.271539 71.4197701,103.132737 C71.5777519,102.993935 71.7346524,102.824138 71.8904764,102.623339 C72.1242123,102.32214 72.295785,102.033031 72.4051998,101.756002 C72.5146146,101.478974 72.5547272,101.213519 72.5255388,100.959631 C72.4963505,100.705743 72.4323491,100.467571 72.3335326,100.245108 C72.2347162,100.022644 72.0690106,99.7859767 71.8364109,99.5350983 C71.6038112,99.2842198 71.3696711,99.0547677 71.1339836,98.8467351 C70.8982961,98.6387025 70.5984827,98.3934745 70.2345345,98.1110436 L64.059996,93.3194814 C62.8865768,92.4088852 61.9564116,91.9233195 61.2694725,91.8627697 C60.5825334,91.8022199 59.9469034,92.1484379 59.3625637,92.9014342 C59.1385667,93.1900827 58.9763815,93.4638561 58.876003,93.7227626 C58.7756245,93.981669 58.7452507,94.2345736 58.7848808,94.4814839 C58.8245109,94.7283941 58.8911103,94.9535019 58.984681,95.156814 C59.0782518,95.360126 59.2437692,95.5840804 59.4812384,95.8286839 C59.7187076,96.0732874 59.9467361,96.2879431 60.1653307,96.4726575 C60.3839254,96.6573719 60.6751924,96.890941 61.0391406,97.1733719 L62.1874542,98.0644856 L60.587832,100.125803 L59.4301061,99.2273847 C58.833984,98.7647824 58.3298362,98.313232 57.9176475,97.87272 C57.5054588,97.432208 57.1644721,96.961496 56.8946771,96.4605697 C56.6248821,95.9596435 56.4695083,95.4570319 56.428551,94.95272 C56.3875938,94.448408 56.4679823,93.9075725 56.6697189,93.330197 C56.8714555,92.7528216 57.2060547,92.1629442 57.6735265,91.5605472 Z M53.253907,97.7686703 L69.6111135,108.843108 L65.3229414,115.17684 L63.6359196,114.034663 L66.3811512,109.979891 L60.9747886,106.319582 L58.7438705,109.614701 L57.1160423,108.512601 L59.3469605,105.217482 L53.3486604,101.156409 L50.5700318,105.260509 L48.932338,104.15173 L53.253907,97.7686703 Z M50.608161,113.628021 L52.3326623,114.596282 L49.6611963,119.354243 L47.936695,118.385983 L50.608161,113.628021 Z M38.7692937,121.215632 L40.5626022,122.049585 C40.2980133,122.618549 40.1262483,123.077379 40.0473021,123.426088 C39.9683559,123.774797 39.9864235,124.09854 40.1015054,124.397326 C40.2165874,124.696111 40.4247015,124.954942 40.725854,125.173825 C41.0270066,125.392708 41.4728614,125.639464 42.0634318,125.914101 L55.8913527,132.344583 L54.7308516,134.840091 L40.8597184,128.389513 C40.0602878,128.017749 39.4217362,127.648534 38.9440447,127.281857 C38.4663531,126.91518 38.1044796,126.497251 37.8584131,126.028058 C37.6123466,125.558865 37.52095,125.030212 37.5842206,124.442084 C37.6474912,123.853956 37.8583069,123.174591 38.2166741,122.403969 L38.7692937,121.215632 Z M35.5785747,129.363756 L53.8860886,136.782402 L51.0134885,143.871319 L49.125319,143.106187 L50.9643201,138.567956 L44.9133444,136.115954 L43.4188764,139.803958 L41.5969586,139.065673 L43.0914266,135.377669 L36.3779353,132.657201 L34.5165621,137.250642 L32.6836023,136.507882 L35.5785747,129.363756 Z M30.1612297,143.831174 L49.0621919,149.583688 L48.3265018,152.173811 L31.9580389,151.153469 L46.4124052,158.912715 L45.6767151,161.502838 L26.5739263,156.460889 L27.1826611,154.317734 L41.0514248,158.034037 L28.1559857,150.890978 L28.5791703,149.401085 L43.2975584,150.126139 L29.5459844,145.99725 L30.1612297,143.831174 Z M25.8602759,159.404799 L45.2164262,163.346985 L43.6899587,170.841947 L41.6936368,170.435365 L42.6708613,165.637188 L36.2732918,164.334222 L35.4791482,168.23347 L33.5528727,167.841154 L34.3470162,163.941905 L27.2489829,162.496279 L26.25987,167.352828 L24.3219201,166.958134 L25.8602759,159.404799 Z M22.4494001,179.258045 C22.6259017,177.60742 23.2697828,176.404196 24.3810626,175.648336 C25.4923424,174.892477 26.9379951,174.557801 28.718064,174.6443 L29.1205188,177.155623 C26.2903496,177.028729 24.7853478,177.806378 24.6054682,179.488593 C24.5303072,180.191491 24.6685586,180.747455 25.0202265,181.156502 C25.3718944,181.565549 25.9268108,181.810606 26.6849923,181.891678 C27.1035718,181.936437 27.4918837,181.928035 27.84994,181.866471 C28.2079962,181.804908 28.5570077,181.678476 28.8969851,181.487171 C29.2369625,181.295866 29.5223592,181.11071 29.7531838,180.931697 C29.9840084,180.752685 30.2930119,180.496165 30.6802035,180.16213 L33.9584529,177.181683 C34.6296184,176.582456 35.3151265,176.166499 36.0149977,175.933797 C36.7148689,175.701095 37.5465533,175.63626 38.5100757,175.73929 C39.9316662,175.891301 40.9951807,176.422391 41.7006513,177.332576 C42.4061218,178.242761 42.6903228,179.413424 42.5532628,180.844602 C42.4088994,182.418782 41.8783177,183.552245 40.9615017,184.245025 C40.0446857,184.937804 38.7051541,185.269848 36.9428668,185.241167 L36.5501709,182.86269 C36.9800261,182.876702 37.3637559,182.873801 37.7013719,182.853986 C38.0389878,182.834171 38.3823734,182.779029 38.7315388,182.688556 C39.0807041,182.598084 39.3696392,182.473216 39.5983525,182.313948 C39.8270658,182.154679 40.0186726,181.931537 40.1731785,181.644513 C40.3276845,181.357489 40.4142022,181.015273 40.4327343,180.617853 C40.4846083,179.161591 39.8431972,178.362111 38.5084817,178.21939 C37.9319478,178.157741 37.4396377,178.204947 37.0315365,178.361009 C36.6234354,178.517071 36.18124,178.80528 35.704937,179.225642 L32.4241541,182.229782 C31.558126,183.007873 30.6556176,183.604318 29.7166018,184.019137 C28.7775861,184.433956 27.7473552,184.581403 26.6258782,184.461483 C25.1884923,184.307783 24.0957097,183.751597 23.3474976,182.792907 C22.5992855,181.834218 22.2999226,180.655942 22.4494001,179.258045 Z M21.6426393,191.169217 C21.6779265,190.184949 21.8550063,189.346851 22.1738841,188.654898 C22.4927619,187.962946 22.9453483,187.420843 23.5316569,187.028575 C24.1179654,186.636307 24.7955316,186.358584 25.5643756,186.1954 C26.3332196,186.032215 27.2256378,185.968837 28.2416568,186.005262 L35.7188843,186.27333 C37.7747353,186.347034 39.3174644,186.821586 40.3471179,187.696999 C41.3767714,188.572411 41.8571575,189.970552 41.7882905,191.891463 C41.7197082,193.804436 41.1365365,195.16246 40.0387579,195.965576 C38.9409793,196.768691 37.3721257,197.133676 35.33215,197.06054 L27.8430161,196.792046 C25.7871651,196.718341 24.2227501,196.239038 23.1497241,195.354123 C22.0766981,194.469208 21.5743415,193.074253 21.6426393,191.169217 Z M24.0959699,189.910018 C23.9164734,190.261236 23.8170512,190.706719 23.7977001,191.246479 C23.7783491,191.786239 23.8456861,192.235713 23.9997132,192.594914 C24.1537402,192.954116 24.3981369,193.231114 24.7329106,193.425916 C25.0676843,193.620719 25.4382506,193.759181 25.8446206,193.841306 C26.2509906,193.923432 26.7557987,193.975308 27.35906,193.996936 L36.003116,194.306835 C36.5984397,194.328178 37.0957447,194.312229 37.495046,194.258988 C37.8943473,194.205747 38.2639556,194.093821 38.6038821,193.923207 C38.9438085,193.752593 39.1974918,193.493452 39.3649395,193.145776 C39.5323872,192.7981 39.6257851,192.354388 39.6451362,191.814628 C39.6644872,191.274868 39.6031033,190.825608 39.4609827,190.466833 C39.3188621,190.108058 39.0843873,189.831416 38.7575513,189.636898 C38.4307153,189.44238 38.0700709,189.304274 37.6756073,189.222575 C37.2811438,189.140876 36.7862576,189.089356 36.190934,189.068013 L27.546878,188.758114 C26.9436167,188.736486 26.4363898,188.752079 26.025182,188.804894 C25.6139742,188.857708 25.234444,188.969278 24.8865799,189.139608 C24.5387158,189.309937 24.2751817,189.566738 24.0959699,189.910018 Z M22.0738036,206.569035 C21.8352814,205.958363 21.6995569,205.232394 21.6666261,204.391107 C21.6336953,203.54982 21.7141642,202.813401 21.9080352,202.181829 C22.1019062,201.550257 22.3797221,201.032652 22.7414912,200.628999 C23.1032603,200.225345 23.5751964,199.894885 24.1573136,199.637609 C24.7394308,199.380332 25.3601274,199.195075 26.019422,199.08183 C26.6787166,198.968586 27.4488375,198.894723 28.3298079,198.860239 L41.4133431,198.348106 L41.515863,200.967194 L28.3013734,201.484453 C27.7378699,201.506511 27.2503933,201.541489 26.8389291,201.589391 C26.427465,201.637292 26.0155761,201.724953 25.6032503,201.852377 C25.1909245,201.9798 24.8614301,202.141736 24.6147574,202.338189 C24.3680846,202.534642 24.1697691,202.798751 24.0198047,203.130523 C23.8698404,203.462295 23.8037132,203.854371 23.8214213,204.306761 C23.8391294,204.759151 23.9356239,205.142874 24.1109076,205.45794 C24.2861914,205.773007 24.5064513,206.018744 24.7716937,206.195159 C25.0369362,206.371574 25.3780804,206.507258 25.7951366,206.602217 C26.2121928,206.697176 26.6276894,206.75245 27.041639,206.768042 C27.4555885,206.783634 27.9443077,206.780401 28.5078113,206.758344 L41.7223009,206.241084 L41.8248208,208.860172 L28.7412856,209.372306 C27.8603152,209.40679 27.086777,209.393351 26.4206477,209.331989 C25.7545184,209.270626 25.1212399,209.134453 24.5207933,208.923466 C23.9203467,208.712479 23.4240235,208.41992 23.0318089,208.04578 C22.6395944,207.67164 22.3202625,207.179396 22.0738036,206.569035 Z M22.6996841,215.940609 L41.8337102,209.343437 L42.1225113,211.900618 L28.0176405,216.634912 L42.8070768,217.962084 L43.0891927,220.460071 L22.9697666,218.332047 L22.6996841,215.940609 Z M23.8013407,224.8944 L43.2847449,221.638891 L43.730463,224.306402 L24.2470587,227.561911 L23.8013407,224.8944 Z M24.8470648,230.715654 L44.1584079,226.559525 L45.7677172,234.037138 L43.7760166,234.465786 L42.7457578,229.678716 L36.3629979,231.052395 L37.2002398,234.942617 L35.2784234,235.356224 L34.4411815,231.466002 L27.3595792,232.990083 L28.4023715,237.83539 L26.4689077,238.251504 L24.8470648,230.715654 Z M27.0377029,240.406732 L46.0311256,234.979829 L46.545012,236.778362 L35.4740307,245.777712 L48.0866714,242.173961 L48.7183917,244.384896 L29.724969,249.811799 L29.240541,248.116366 L40.6551902,238.932086 L27.6759695,242.640579 L27.0377029,240.406732 Z M32.0670514,257.183788 C31.498684,255.624085 31.5469527,254.260267 32.211859,253.092291 C32.8767653,251.924316 34.0273462,250.987255 35.6636363,250.281081 L37.1308087,252.358608 C34.5339184,253.490915 33.525111,254.851825 34.1043563,256.441379 C34.3463883,257.105558 34.7153279,257.543842 35.2111862,257.756244 C35.7070444,257.968646 36.3131736,257.944313 37.0295921,257.683245 C37.4251148,257.539114 37.7700535,257.360581 38.0644187,257.147641 C38.3587839,256.934701 38.6164642,256.667502 38.8374672,256.346037 C39.0584703,256.024572 39.2331767,255.732661 39.3615918,255.470297 C39.4900069,255.207933 39.6544838,254.841554 39.8550276,254.371152 L41.4859315,250.251669 C41.8246614,249.418124 42.256969,248.742807 42.7828672,248.225699 C43.3087654,247.708591 44.026928,247.284156 44.9373765,246.952382 C46.2806611,246.462879 47.4693777,246.4714 48.503562,246.977945 C49.5377463,247.484491 50.3084008,248.410404 50.8155487,249.755712 C51.3791096,251.23263 51.401846,252.483924 50.8837587,253.509634 C50.3656713,254.535344 49.3092106,255.423313 47.7143448,256.173568 L46.3144313,254.211016 C46.7065388,254.034315 47.0497859,253.862738 47.3441827,253.696282 C47.6385796,253.529826 47.9226003,253.329111 48.1962533,253.09413 C48.4699063,252.85915 48.6743367,252.61981 48.8095504,252.376102 C48.9447641,252.132395 49.018536,251.847678 49.0308682,251.521944 C49.0432004,251.19621 48.970187,250.85086 48.8118258,250.485884 C48.2171494,249.155564 47.2892276,248.720205 46.0280326,249.179794 C45.4832561,249.378315 45.0620314,249.637482 44.764346,249.957303 C44.4666607,250.277124 44.1965534,250.730602 43.9540163,251.317752 L42.3312707,255.459623 C41.8963481,256.539563 41.3486869,257.472481 40.6882707,258.258405 C40.0278544,259.044328 39.167808,259.630363 38.1081057,260.016526 C36.7498957,260.511468 35.5238503,260.493303 34.4299329,259.962029 C33.3360154,259.430756 32.5483961,258.504685 32.0670514,257.183788 Z M42.5455684,265.651803 L44.3364182,264.812583 L46.6518567,269.753602 L44.8610069,270.592822 L42.5455684,265.651803 Z M42.9240842,280.668562 L60.053683,270.83097 L61.4243005,273.217543 L46.0097278,282.070189 L48.5195599,286.440406 L46.8045337,287.425352 L42.9240842,280.668562 Z M55.1723335,287.529439 L56.9917542,290.2828 L63.5237685,283.981488 L55.1723335,287.529439 Z M47.2229489,288.098464 L66.0285359,280.726948 L67.4932681,282.943553 L53.3380419,297.35254 L51.8930146,295.165755 L55.5487147,291.664769 L53.3351956,288.315012 L48.661408,290.275309 L47.2229489,288.098464 Z M68.5147155,298.240801 L69.5427709,299.493205 C70.2634211,300.371119 70.9585039,300.82043 71.6280401,300.84115 C72.2975763,300.86187 73.0927773,300.494273 74.0136669,299.738346 C74.3144908,299.49141 74.5593024,299.254487 74.748109,299.02757 C74.9369155,298.800652 75.0834097,298.587918 75.1875959,298.389358 C75.2917822,298.190799 75.3408986,297.97836 75.3349467,297.752035 C75.3289948,297.52571 75.300296,297.315492 75.2488495,297.121374 C75.197403,296.927256 75.0890339,296.695092 74.9237392,296.424873 C74.7584444,296.154655 74.5884329,295.903729 74.4136996,295.672086 C74.2389663,295.440444 74.007977,295.149658 73.7207248,294.79972 L73.3125263,294.302442 L68.5147155,298.240801 Z M61.1476356,304.288186 L62.3268756,305.724766 C63.0828024,306.645656 63.8157505,307.097281 64.5257418,307.079655 C65.2357331,307.062029 66.1033442,306.632423 67.1286013,305.790824 C68.1047443,304.989542 68.6687294,304.190051 68.8205736,303.392327 C68.9724177,302.594604 68.6754204,301.741449 67.9295725,300.832838 L66.8939579,299.571226 L61.1476356,304.288186 Z M57.8727842,303.415774 L73.1410574,290.882569 L76.0060058,294.372723 C77.1449356,295.760197 77.6790131,297.043 77.6082542,298.22117 C77.5374954,299.399341 76.8482947,300.525117 75.5406315,301.598533 C73.5944848,303.196059 71.9204368,303.347399 70.5184371,302.052558 C71.0382319,303.136452 71.1535739,304.143859 70.8644664,305.07481 C70.5753589,306.00576 69.884421,306.919738 68.7916321,307.816771 C67.4164369,308.945622 66.080581,309.502697 64.7840242,309.488013 C63.4874674,309.47333 62.2949396,308.802957 61.2064049,307.476876 L57.8727842,303.415774 Z M66.0618488,313.233094 L80.4804201,299.731014 L85.7086081,305.314079 L84.2215299,306.706634 L80.8745123,303.132429 L76.1089049,307.595119 L78.8288657,310.499704 L77.3939656,311.843397 L74.6740049,308.938812 L69.3866157,313.890118 L72.7743512,317.507805 L71.3307548,318.859642 L66.0618488,313.233094 Z M72.918508,320.426729 L86.5525099,306.132836 L88.5439992,308.032386 L76.2750421,320.895165 L79.9217952,324.373563 L78.5567504,325.804676 L72.918508,320.426729 Z M79.980436,327.044208 L92.7985278,312.014307 L94.892561,313.800181 L83.3578246,327.325279 L87.1923528,330.595516 L85.9089974,332.100319 L79.980436,327.044208 Z M87.4039236,333.260995 L99.35442,317.532453 L105.444724,322.159847 L104.212194,323.78203 L100.313261,320.819634 L96.3633984,326.018211 L99.5318742,328.425609 L98.3425908,329.990873 L95.174115,327.583476 L90.7917858,333.35124 L94.7381508,336.349676 L93.5416596,337.924427 L87.4039236,333.260995 Z M108.218486,334.279883 L109.281578,334.93926 C110.307552,335.575614 111.125933,335.830858 111.736746,335.705 C112.347559,335.579142 112.973226,334.99986 113.613766,333.967137 C113.877518,333.541898 114.084044,333.18632 114.233349,332.900392 C114.382655,332.614465 114.497227,332.328029 114.577069,332.041076 C114.656911,331.754124 114.680277,331.509255 114.647167,331.306462 C114.614058,331.10367 114.523875,330.891183 114.376617,330.668996 C114.229359,330.446809 114.029515,330.234067 113.77708,330.030763 C113.524645,329.827459 113.195937,329.600214 112.790948,329.349022 L111.697482,328.670806 L108.218486,334.279883 Z M99.9892534,342.326212 L110.401121,325.53948 L114.562368,328.120468 C116.02033,329.02476 116.8328,330.073115 116.999802,331.265564 C117.166803,332.458013 116.779324,333.813572 115.837353,335.332283 C114.991672,336.695748 113.979629,337.540086 112.801194,337.865323 C111.622758,338.19056 110.358577,337.934528 109.008612,337.097221 L107.176043,335.960581 L102.328056,343.77684 L99.9892534,342.326212 Z M117.660326,339.727521 L118.577515,340.210372 C119.638789,340.769075 120.506151,340.958658 121.179628,340.779126 C121.853106,340.599594 122.478437,339.961629 123.055641,338.865214 C123.614345,337.80394 123.811509,336.956277 123.64714,336.322199 C123.482771,335.688121 122.859416,335.086189 121.777057,334.516385 L120.701732,333.950284 L117.660326,339.727521 Z M109.98582,348.397496 L119.187739,330.918192 L122.698359,332.766346 C124.469492,333.698753 125.577403,334.744274 126.022126,335.902943 C126.466849,337.061611 126.25816,338.459722 125.396054,340.097316 C124.212046,342.346374 122.775711,343.327083 121.087007,343.039474 L118.967947,353.126106 L116.606449,351.882903 L118.626114,342.471011 L116.739024,341.477559 L112.421115,349.679549 L109.98582,348.397496 Z M125.763566,356.389381 C124.860147,355.997127 124.144581,355.526245 123.616845,354.976721 C123.08911,354.427196 122.749701,353.807914 122.598608,353.118854 C122.447515,352.429795 122.436381,351.697605 122.565207,350.922264 C122.694032,350.146922 122.960894,349.292983 123.365802,348.360422 L126.345653,341.497384 C127.164957,339.610404 128.170065,338.347482 129.361006,337.708582 C130.551947,337.069681 132.028957,337.132994 133.792082,337.898522 C135.54792,338.660887 136.599228,339.69967 136.946037,341.014903 C137.292846,342.330135 137.059764,343.923932 136.246786,345.796341 L133.26219,352.670307 C132.442885,354.557287 131.425436,355.838662 130.209811,356.51447 C128.994186,357.190278 127.51212,357.148582 125.763566,356.389381 Z M125.487144,353.64566 C125.748567,353.941009 126.126985,354.196233 126.622409,354.41134 C127.117832,354.626447 127.560858,354.727884 127.951499,354.715654 C128.34214,354.703424 128.689252,354.577049 128.992845,354.336523 C129.296438,354.095997 129.560651,353.801578 129.785491,353.453256 C130.010331,353.104934 130.242954,352.653925 130.483368,352.100217 L133.928227,344.166196 C134.165478,343.619773 134.33222,343.150984 134.428459,342.759813 C134.524698,342.368643 134.555462,341.983687 134.520753,341.604933 C134.486044,341.226179 134.337428,340.895388 134.074902,340.61255 C133.812377,340.329711 133.433408,340.080742 132.937984,339.865635 C132.442561,339.650528 132.001908,339.543627 131.616012,339.544905 C131.230116,339.546229 130.886958,339.663498 130.586528,339.896738 C130.286098,340.129978 130.025839,340.415291 129.805744,340.752684 C129.58565,341.090078 129.35698,341.53198 129.11973,342.078402 L125.67487,350.012423 C125.434457,350.566132 125.26376,351.044028 125.162776,351.446127 C125.061792,351.848226 125.027074,352.242289 125.05862,352.628328 C125.090166,353.014367 125.233006,353.353475 125.487144,353.64566 Z M136.584673,360.45209 L138.925177,340.348467 L141.355166,341.195659 L139.513663,355.959459 L147.115139,343.203818 L149.488878,344.0314 L138.857163,361.244372 L136.584673,360.45209 Z M145.142204,363.340134 L150.637985,344.366527 L153.235699,345.118965 L147.739918,364.092572 L145.142204,363.340134 Z M150.845522,364.902873 L155.287738,345.655326 L157.110335,346.07597 L159.628257,360.119295 L162.578124,347.337902 L164.818641,347.854999 L160.376425,367.102547 L158.658309,366.706017 L156.14486,352.272451 L153.109257,365.425329 L150.845522,364.902873 Z M168.245393,368.646553 C167.436838,368.521928 166.743358,368.302531 166.164932,367.988354 C165.586507,367.674178 165.132051,367.298747 164.801551,366.862053 C164.47105,366.425358 164.225421,365.907323 164.064655,365.307931 C163.90389,364.708539 163.8242,364.091516 163.82555,363.456843 C163.82697,362.82217 163.886949,362.120191 164.005523,361.350886 L165.069057,354.450727 C165.196101,353.626471 165.358291,352.900065 165.555632,352.271485 C165.752973,351.642905 166.016268,351.068701 166.345525,350.548856 C166.674783,350.02901 167.063485,349.618791 167.511645,349.318186 C167.959805,349.017581 168.503796,348.812116 169.143633,348.701785 C169.78347,348.591454 170.507656,348.598601 171.316211,348.723225 C173.074622,348.994252 174.261336,349.663366 174.876388,350.730586 C175.49144,351.797807 175.656795,353.253776 175.372458,355.098538 L175.132891,356.65284 L172.554163,356.255376 L172.766506,354.877699 C172.812484,354.579397 172.846517,354.345559 172.868606,354.176178 C172.890694,354.006797 172.91521,353.795601 172.942153,353.542585 C172.969096,353.289568 172.977757,353.089993 172.968136,352.943852 C172.958514,352.797711 172.942711,352.626511 172.920724,352.430245 C172.898737,352.233979 172.856661,352.076811 172.794495,351.958736 C172.732329,351.840661 172.651748,351.711713 172.552752,351.571888 C172.453755,351.432063 172.33422,351.32122 172.194144,351.239356 C172.054068,351.157491 171.885006,351.081206 171.686955,351.010497 C171.488903,350.939789 171.26428,350.885076 171.013078,350.846358 C170.636276,350.788281 170.300227,350.778676 170.00492,350.817543 C169.709614,350.856411 169.458077,350.950242 169.250303,351.09904 C169.042528,351.247837 168.865396,351.419437 168.718902,351.613844 C168.572408,351.808251 168.445976,352.06803 168.339603,352.393187 C168.23323,352.718345 168.146336,353.034445 168.078918,353.341497 C168.0115,353.648549 167.942704,354.029721 167.872528,354.485024 L166.68195,362.209434 C166.455691,363.677394 166.482874,364.726318 166.763501,365.356239 C167.044128,365.98616 167.655435,366.373711 168.597441,366.518904 C168.958543,366.574562 169.276628,366.583407 169.551704,366.545439 C169.82678,366.507472 170.062617,366.411221 170.259221,366.256683 C170.455826,366.102146 170.620276,365.934619 170.752575,365.754097 C170.884874,365.573575 171.000283,365.320134 171.098806,364.993766 C171.197329,364.667399 171.274256,364.363826 171.329589,364.083039 C171.384922,363.802252 171.447676,363.434213 171.517852,362.97891 L171.739271,361.542358 L174.317999,361.939822 L174.094766,363.388149 C173.979821,364.133904 173.829878,364.793889 173.644932,365.368123 C173.459986,365.942358 173.214065,366.469012 172.907162,366.948102 C172.60026,367.427192 172.236324,367.807073 171.815344,368.087758 C171.394364,368.368443 170.882533,368.560783 170.279836,368.664783 C169.677139,368.768784 168.998998,368.762707 168.245393,368.646553 Z M175.822493,369.495833 L177.558325,349.818733 L185.177564,350.490871 L184.998537,352.520294 L180.1208,352.09 L179.547075,358.59365 L183.510978,358.943329 L183.338232,360.901545 L179.374329,360.551866 L178.737788,367.767594 L183.674865,368.203122 L183.501072,370.173205 L175.822493,369.495833 Z M190.977655,364.107883 L190.988155,362.130176 L196.444719,362.159147 L196.434219,364.136853 L190.977655,364.107883 Z" id="JEMESOUVIENS-LABELLEPROVINCE-JEMESOUVIENS-LABELLEPROVINCE-JEMESOUVIENS-LABELLEPROVINCE-"></path>
                    </g>
                </g>
            </g>
        </g>
    </g>
</svg>